<svg style="overflow: visible;" class="typst-doc" viewBox="0 0 194.5227401574803 158.67382677165355" width="194.5227401574803pt" height="158.67382677165355pt" xmlns="http://www.w3.org/2000/svg" xmlns:xlink="http://www.w3.org/1999/xlink" xmlns:h5="http://www.w3.org/1999/xhtml">
    <g>
        <g transform="translate(0 0)">
            <g class="typst-group">
                <g>
                    <g transform="translate(0 0)">
                        <g class="typst-group">
                            <g>
                                <g transform="translate(-0 -0)">
                                    <path class="typst-shape" fill="none" stroke="#000000" stroke-width="0" stroke-linecap="butt" stroke-linejoin="miter" stroke-miterlimit="4" d="M 0 0 L 0 158.67383 L 194.52274 158.67383 L 194.52274 0 Z "></path>
                                </g>
                                <g transform="translate(24.444000000000006 0)">
                                    <g class="typst-group">
                                        <g>
                                            <g transform="translate(0 0)">
                                                <g class="typst-group" clip-path="url(#cFAF4A5B70E97D0974F5C39459B19C41E)">
                                                    <g>
                                                        <g transform="translate(0 0)">
                                                            <g class="typst-group">
                                                                <g>
                                                                    <g transform="translate(0 0)">
                                                                        <path class="typst-shape" fill="none" stroke="#3f90da" stroke-width="0.7" stroke-linecap="butt" stroke-linejoin="miter" stroke-miterlimit="4" d="M 9.1113615 6.0742407 L 47.075367 7.656074 L 85.03937 18.728909 L 123.00337 48.783745 L 160.96738 107.311584 "></path>
                                                                    </g>
                                                                </g>
                                                            </g>
                                                        </g>
                                                        <g transform="translate(9.111361079865016 6.074240719910015)">
                                                            <g class="typst-group">
                                                                <g>
                                                                    <g transform="translate(-1 -1)">
                                                                        <g class="typst-group">
                                                                            <g>
                                                                                <g transform="translate(-0 -0)">
                                                                                    <path class="typst-shape" fill="#3f90da" fill-rule="nonzero" stroke="#3f90da" stroke-width="0.7" stroke-linecap="butt" stroke-linejoin="miter" stroke-miterlimit="4" d="M 0 1 C 0 0.448216 0.448216 0 1 0 C 1.551784 0 2 0.448216 2 1 C 2 1.551784 1.551784 2 1 2 C 0.448216 2 0 1.551784 0 1 "></path>
                                                                                </g>
                                                                            </g>
                                                                        </g>
                                                                    </g>
                                                                </g>
                                                            </g>
                                                        </g>
                                                        <g transform="translate(47.07536557930258 7.6560742407199065)">
                                                            <g class="typst-group">
                                                                <g>
                                                                    <g transform="translate(-1 -1)">
                                                                        <g class="typst-group">
                                                                            <g>
                                                                                <g transform="translate(-0 -0)">
                                                                                    <path class="typst-shape" fill="#3f90da" fill-rule="nonzero" stroke="#3f90da" stroke-width="0.7" stroke-linecap="butt" stroke-linejoin="miter" stroke-miterlimit="4" d="M 0 1 C 0 0.448216 0.448216 0 1 0 C 1.551784 0 2 0.448216 2 1 C 2 1.551784 1.551784 2 1 2 C 0.448216 2 0 1.551784 0 1 "></path>
                                                                                </g>
                                                                            </g>
                                                                        </g>
                                                                    </g>
                                                                </g>
                                                            </g>
                                                        </g>
                                                        <g transform="translate(85.03937007874015 18.728908886389195)">
                                                            <g class="typst-group">
                                                                <g>
                                                                    <g transform="translate(-1 -1)">
                                                                        <g class="typst-group">
                                                                            <g>
                                                                                <g transform="translate(-0 -0)">
                                                                                    <path class="typst-shape" fill="#3f90da" fill-rule="nonzero" stroke="#3f90da" stroke-width="0.7" stroke-linecap="butt" stroke-linejoin="miter" stroke-miterlimit="4" d="M 0 1 C 0 0.448216 0.448216 0 1 0 C 1.551784 0 2 0.448216 2 1 C 2 1.551784 1.551784 2 1 2 C 0.448216 2 0 1.551784 0 1 "></path>
                                                                                </g>
                                                                            </g>
                                                                        </g>
                                                                    </g>
                                                                </g>
                                                            </g>
                                                        </g>
                                                        <g transform="translate(123.00337457817773 48.78374578177728)">
                                                            <g class="typst-group">
                                                                <g>
                                                                    <g transform="translate(-1 -1)">
                                                                        <g class="typst-group">
                                                                            <g>
                                                                                <g transform="translate(-0 -0)">
                                                                                    <path class="typst-shape" fill="#3f90da" fill-rule="nonzero" stroke="#3f90da" stroke-width="0.7" stroke-linecap="butt" stroke-linejoin="miter" stroke-miterlimit="4" d="M 0 1 C 0 0.448216 0.448216 0 1 0 C 1.551784 0 2 0.448216 2 1 C 2 1.551784 1.551784 2 1 2 C 0.448216 2 0 1.551784 0 1 "></path>
                                                                                </g>
                                                                            </g>
                                                                        </g>
                                                                    </g>
                                                                </g>
                                                            </g>
                                                        </g>
                                                        <g transform="translate(160.96737907761528 107.31158605174352)">
                                                            <g class="typst-group">
                                                                <g>
                                                                    <g transform="translate(-1 -1)">
                                                                        <g class="typst-group">
                                                                            <g>
                                                                                <g transform="translate(-0 -0)">
                                                                                    <path class="typst-shape" fill="#3f90da" fill-rule="nonzero" stroke="#3f90da" stroke-width="0.7" stroke-linecap="butt" stroke-linejoin="miter" stroke-miterlimit="4" d="M 0 1 C 0 0.448216 0.448216 0 1 0 C 1.551784 0 2 0.448216 2 1 C 2 1.551784 1.551784 2 1 2 C 0.448216 2 0 1.551784 0 1 "></path>
                                                                                </g>
                                                                            </g>
                                                                        </g>
                                                                    </g>
                                                                </g>
                                                            </g>
                                                        </g>
                                                    </g>
                                                </g>
                                            </g>
                                            <g transform="translate(0 113.38582677165354)">
                                                <g class="typst-group">
                                                    <g>
                                                        <g transform="translate(0 0)">
                                                            <g class="typst-group">
                                                                <g>
                                                                    <g transform="translate(0 0)">
                                                                        <g class="typst-group">
                                                                            <g>
                                                                                <g transform="translate(0 0)">
                                                                                    <g class="typst-group">
                                                                                        <g>
                                                                                            <g transform="translate(0 0)">
                                                                                                <path class="typst-shape" fill="none" stroke="#000000" stroke-width="0.5" stroke-linecap="square" stroke-linejoin="miter" stroke-miterlimit="4" d="M 0 0 L 170.07874 0 "></path>
                                                                                            </g>
                                                                                        </g>
                                                                                    </g>
                                                                                </g>
                                                                            </g>
                                                                        </g>
                                                                    </g>
                                                                </g>
                                                            </g>
                                                        </g>
                                                        <g transform="translate(160.96737907761528 -3)">
                                                            <g class="typst-group">
                                                                <g>
                                                                    <g transform="translate(0 0)">
                                                                        <path class="typst-shape" fill="none" stroke="#000000" stroke-width="0.5" stroke-linecap="butt" stroke-linejoin="miter" stroke-miterlimit="4" d="M 0 0 L 0.00000000000000018369701 3 "></path>
                                                                    </g>
                                                                </g>
                                                            </g>
                                                        </g>
                                                        <g transform="translate(160.96737907761528 9)">
                                                            <g class="typst-group">
                                                                <g></g>
                                                            </g>
                                                        </g>
                                                        <g transform="translate(0 33.444)">
                                                            <g class="typst-group">
                                                                <g>
                                                                    <g transform="translate(24.59537007874015 0)">
                                                                        <g class="typst-group">
                                                                            <g>
                                                                                <g transform="translate(0 0)">
                                                                                    <g class="typst-group">
                                                                                        <g>
                                                                                            <g transform="translate(0 11.844000000000001)">
                                                                                                <g class="typst-text" transform="scale(1, -1)">
                                                                                                    <use xlink:href="#g71AF289CB931B9BB6AC14E96209763E8" x="0" fill="#000000" fill-rule="nonzero"></use>
                                                                                                    <use xlink:href="#gD275C8DC5C33982646C616F748F0EED0" x="10.584" fill="#000000" fill-rule="nonzero"></use>
                                                                                                    <use xlink:href="#gB10B7D579212A6D84C29AEBFF20D1D38" x="17.136" fill="#000000" fill-rule="nonzero"></use>
                                                                                                    <use xlink:href="#g89E95FD8025429FED12B7F6BA0EE671" x="25.182" fill="#000000" fill-rule="nonzero"></use>
                                                                                                    <use xlink:href="#gD1BD0DB1A698C39E0F2179AE1049C9CB" x="33.408" fill="#000000" fill-rule="nonzero"></use>
                                                                                                    <use xlink:href="#g44A3A57C294A7D28C0E458AA17C4160" x="42.516000000000005" fill="#000000" fill-rule="nonzero"></use>
                                                                                                    <use xlink:href="#gA874E8C8F04C2225205BA473545E833C" x="48.20400000000001" fill="#000000" fill-rule="nonzero"></use>
                                                                                                    <use xlink:href="#gC9B5ED0E285F097BC7C7D14EE47287FB" x="62.388000000000005" fill="#000000" fill-rule="nonzero"></use>
                                                                                                    <use xlink:href="#g7D650183B0343F06871EF5C0203080AB" x="71.46000000000001" fill="#000000" fill-rule="nonzero"></use>
                                                                                                    <use xlink:href="#g80658BF0042668A095C347B163F510C4" x="81.54" fill="#000000" fill-rule="nonzero"></use>
                                                                                                    <use xlink:href="#g67083FE9669A9DA792B374642F20894D" x="90.27000000000001" fill="#000000" fill-rule="nonzero"></use>
                                                                                                    <use xlink:href="#gF93B88125CFB904F07FD1BBB868F1EA0" x="99.486" fill="#000000" fill-rule="nonzero"></use>
                                                                                                    <use xlink:href="#gF6215872A08B5BBE399AF9E86F4E3A64" x="104.364" fill="#000000" fill-rule="nonzero"></use>
                                                                                                    <use xlink:href="#gF6215872A08B5BBE399AF9E86F4E3A64" x="109.116" fill="#000000" fill-rule="nonzero"></use>
                                                                                                    <use xlink:href="#g745B1184A4A2958AD04675260A72E34C" x="113.868" fill="#000000" fill-rule="nonzero"></use>
                                                                                                </g>
                                                                                            </g>
                                                                                        </g>
                                                                                    </g>
                                                                                </g>
                                                                            </g>
                                                                        </g>
                                                                    </g>
                                                                </g>
                                                            </g>
                                                        </g>
                                                        <g transform="translate(0 0)">
                                                            <g class="typst-group">
                                                                <g></g>
                                                            </g>
                                                        </g>
                                                    </g>
                                                </g>
                                            </g>
                                            <g transform="translate(0 0)">
                                                <g class="typst-group">
                                                    <g>
                                                        <g transform="translate(0 0)">
                                                            <g class="typst-group">
                                                                <g>
                                                                    <g transform="translate(0 0)">
                                                                        <g class="typst-group">
                                                                            <g>
                                                                                <g transform="translate(0 0)">
                                                                                    <g class="typst-group">
                                                                                        <g>
                                                                                            <g transform="translate(0 0)">
                                                                                                <path class="typst-shape" fill="none" stroke="#000000" stroke-width="0.5" stroke-linecap="square" stroke-linejoin="miter" stroke-miterlimit="4" d="M 0 0 L 0.000000000000010414319 113.385826 "></path>
                                                                                            </g>
                                                                                        </g>
                                                                                    </g>
                                                                                </g>
                                                                            </g>
                                                                        </g>
                                                                    </g>
                                                                </g>
                                                            </g>
                                                        </g>
                                                        <g transform="translate(0 6.074240719910015)">
                                                            <g class="typst-group">
                                                                <g>
                                                                    <g transform="translate(0 0)">
                                                                        <path class="typst-shape" fill="none" stroke="#000000" stroke-width="0.5" stroke-linecap="butt" stroke-linejoin="miter" stroke-miterlimit="4" d="M 0 0 L 3 0 "></path>
                                                                    </g>
                                                                </g>
                                                            </g>
                                                        </g>
                                                        <g transform="translate(-9 0.15224071991001456)">
                                                            <g class="typst-group">
                                                                <g></g>
                                                            </g>
                                                        </g>
                                                        <g transform="translate(-24.444000000000006 0)">
                                                            <g class="typst-group">
                                                                <g>
                                                                    <g transform="translate(0 2.503913385826767)">
                                                                        <g class="typst-group">
                                                                            <g>
                                                                                <g transform="translate(-48.266999999999996 48.267)">
                                                                                    <g class="typst-group">
                                                                                        <g transform="matrix(0.00000000000000006123233995736766 -1 1 0.00000000000000006123233995736766 48.266999999999996 60.111000000000004)">
                                                                                            <g transform="translate(0 11.844000000000001)">
                                                                                                <g class="typst-text" transform="scale(1, -1)">
                                                                                                    <use xlink:href="#g3966E5AE94CB65EA1661A072BF26A7" x="0" fill="#000000" fill-rule="nonzero"></use>
                                                                                                    <use xlink:href="#gB10B7D579212A6D84C29AEBFF20D1D38" x="12.617999999999999" fill="#000000" fill-rule="nonzero"></use>
                                                                                                    <use xlink:href="#g216EBE3D4459204285D4410C8CA7138D" x="20.663999999999998" fill="#000000" fill-rule="nonzero"></use>
                                                                                                    <use xlink:href="#g44A3A57C294A7D28C0E458AA17C4160" x="30.006" fill="#000000" fill-rule="nonzero"></use>
                                                                                                    <use xlink:href="#gA874E8C8F04C2225205BA473545E833C" x="35.694" fill="#000000" fill-rule="nonzero"></use>
                                                                                                    <use xlink:href="#gC9B5ED0E285F097BC7C7D14EE47287FB" x="49.878" fill="#000000" fill-rule="nonzero"></use>
                                                                                                    <use xlink:href="#g7D650183B0343F06871EF5C0203080AB" x="58.95" fill="#000000" fill-rule="nonzero"></use>
                                                                                                    <use xlink:href="#g80658BF0042668A095C347B163F510C4" x="69.03" fill="#000000" fill-rule="nonzero"></use>
                                                                                                    <use xlink:href="#g67083FE9669A9DA792B374642F20894D" x="77.76" fill="#000000" fill-rule="nonzero"></use>
                                                                                                    <use xlink:href="#gF93B88125CFB904F07FD1BBB868F1EA0" x="86.976" fill="#000000" fill-rule="nonzero"></use>
                                                                                                    <use xlink:href="#gF6215872A08B5BBE399AF9E86F4E3A64" x="91.854" fill="#000000" fill-rule="nonzero"></use>
                                                                                                    <use xlink:href="#gF6215872A08B5BBE399AF9E86F4E3A64" x="96.606" fill="#000000" fill-rule="nonzero"></use>
                                                                                                    <use xlink:href="#g745B1184A4A2958AD04675260A72E34C" x="101.35799999999999" fill="#000000" fill-rule="nonzero"></use>
                                                                                                </g>
                                                                                            </g>
                                                                                        </g>
                                                                                    </g>
                                                                                </g>
                                                                            </g>
                                                                        </g>
                                                                    </g>
                                                                </g>
                                                            </g>
                                                        </g>
                                                        <g transform="translate(0 0)">
                                                            <g class="typst-group">
                                                                <g></g>
                                                            </g>
                                                        </g>
                                                    </g>
                                                </g>
                                            </g>
                                        </g>
                                    </g>
                                </g>
                            </g>
                        </g>
                    </g>
                </g>
            </g>
        </g>
    </g>
    <defs id="h">
        <symbol id="g71AF289CB931B9BB6AC14E96209763E8" overflow="visible">
            <path d="M 2.6639998 11.61 C 2.0159998 11.61 1.0439999 11.627999 0.34199998 11.646 C 0.234 11.537999 0.234 11.16 0.34199998 11.051999 C 1.6019999 10.997999 1.9079999 10.908 1.9079999 9.414 L 1.9079999 2.1959999 C 1.9079999 0.70199996 1.6019999 0.612 0.34199998 0.55799997 C 0.234 0.45 0.234 0.072 0.34199998 -0.036 C 1.0439999 -0.018 2.0159998 0 2.682 0 C 3.33 0 3.7979999 -0.036 5.31 -0.036 C 8.891999 -0.036 9.846 1.7639999 9.846 3.3119998 C 9.846 5.04 8.639999 6.0299997 7.074 6.4799995 L 7.074 6.516 C 7.9739995 6.9659996 8.783999 7.9019995 8.783999 8.874 C 8.783999 10.08 8.262 11.646 4.9139996 11.646 C 4.284 11.646 3.3119998 11.61 2.6639998 11.61 Z M 3.438 5.976 L 4.68 5.976 C 7.146 5.976 8.172 4.5899997 8.172 2.9699998 C 8.172 1.6559999 7.6679997 0.55799997 4.9319997 0.55799997 C 3.672 0.55799997 3.438 1.0259999 3.438 2.1239998 Z M 3.438 9.9 C 3.438 10.853999 3.438 11.033999 5.0039997 11.033999 C 6.0119996 11.033999 7.3259997 10.4939995 7.3259997 8.658 C 7.3259997 7.128 6.264 6.588 4.77 6.588 L 3.438 6.588 Z "></path>
        </symbol>
        <symbol id="gD275C8DC5C33982646C616F748F0EED0" overflow="visible">
            <path d="M 3.1679997 6.444 C 3.132 7.1639996 3.1139998 7.6319995 3.024 7.812 C 2.988 7.9019995 2.952 7.956 2.8079998 7.956 C 2.304 7.758 1.836 7.5959997 0.594 7.4339995 C 0.55799997 7.3259997 0.594 7.0379996 0.63 6.93 C 1.6019999 6.8399997 1.8 6.7499995 1.8 5.706 L 1.8 2.1959999 C 1.8 0.70199996 1.5839999 0.63 0.468 0.55799997 C 0.35999998 0.45 0.35999998 0.072 0.468 -0.036 C 1.0979999 -0.018 1.8 0 2.52 0 C 3.2399998 0 4.068 -0.018 4.698 -0.036 C 4.8059998 0.072 4.8059998 0.45 4.698 0.55799997 C 3.438 0.648 3.222 0.70199996 3.222 2.1959999 L 3.222 4.698 C 3.222 5.166 3.438 5.58 3.6539998 5.904 C 3.8519998 6.192 4.266 6.786 4.482 6.786 C 4.6439996 6.786 4.8059998 6.7499995 4.95 6.5519996 C 5.0759997 6.3719997 5.292 6.1379995 5.5979996 6.1379995 C 6.0299997 6.1379995 6.444 6.588 6.444 7.0379996 C 6.444 7.3799996 6.12 7.9019995 5.364 7.9019995 C 4.5179996 7.9019995 3.7799997 7.1099997 3.366 6.4079995 C 3.258 6.2099996 3.1679997 6.3539996 3.1679997 6.444 Z "></path>
        </symbol>
        <symbol id="gB10B7D579212A6D84C29AEBFF20D1D38" overflow="visible">
            <path d="M 6.9479995 1.6739999 C 6.2819996 0.98999995 5.7599998 0.70199996 4.7159996 0.70199996 C 4.068 0.70199996 3.3119998 1.0799999 2.754 1.9979999 C 2.3939998 2.592 2.178 3.4199998 2.178 4.4639997 L 6.9659996 4.428 C 7.1819997 4.428 7.3079996 4.536 7.3079996 4.7339997 C 7.3079996 6.246 6.7679996 7.8659997 4.266 7.8659997 C 2.6999998 7.8659997 0.66599995 6.3719997 0.66599995 3.636 C 0.66599995 2.6279998 0.918 1.6559999 1.512 0.97199994 C 2.1239998 0.25199997 2.9699998 -0.17999999 4.266 -0.17999999 C 5.634 -0.17999999 6.606 0.45 7.3259997 1.3859999 C 7.272 1.566 7.1639996 1.6559999 6.9479995 1.6739999 Z M 2.2319999 5.0759997 C 2.574 7.1099997 3.8339999 7.272 4.266 7.272 C 4.95 7.272 5.7599998 6.8939996 5.7599998 5.382 C 5.7599998 5.22 5.6879997 5.1299996 5.49 5.1299996 Z "></path>
        </symbol>
        <symbol id="g89E95FD8025429FED12B7F6BA0EE671" overflow="visible">
            <path d="M 5.2739997 0.86399996 C 5.382 0.306 5.58 -0.17999999 6.4799995 -0.17999999 C 7.1639996 -0.17999999 7.812 0.12599999 8.19 0.48599997 C 8.153999 0.70199996 8.082 0.86399996 7.884 0.97199994 C 7.758 0.86399996 7.4519997 0.68399996 7.2179995 0.68399996 C 6.6959996 0.68399996 6.6779995 1.3859999 6.6779995 2.214 L 6.6779995 4.8599997 C 6.6779995 7.416 5.2739997 7.9019995 3.9599998 7.9019995 C 2.484 7.9019995 0.98999995 6.93 0.98999995 5.904 C 0.98999995 5.4719996 1.206 5.2559996 1.6199999 5.2559996 C 2.142 5.2559996 2.4659998 5.634 2.4659998 5.8679996 C 2.4659998 5.994 2.448 6.12 2.412 6.192 C 2.3939998 6.246 2.376 6.3539996 2.376 6.5519996 C 2.376 7.1099997 3.132 7.3079996 3.8159997 7.3079996 C 4.428 7.3079996 5.2739997 7.002 5.2739997 4.968 C 5.2739997 4.842 5.22 4.77 5.166 4.752 L 3.6179998 4.3739996 C 1.8899999 3.942 0.648 2.988 0.648 1.7639999 C 0.648 0.288 1.6559999 -0.17999999 2.916 -0.17999999 C 3.5459998 -0.17999999 4.086 -0.036 4.878 0.576 L 5.238 0.86399996 Z M 5.2739997 4.194 L 5.2739997 1.818 C 5.2739997 1.5839999 5.166 1.458 5.022 1.3499999 C 4.554 0.97199994 3.942 0.55799997 3.438 0.55799997 C 2.5379999 0.55799997 2.142 1.278 2.142 1.836 C 2.142 2.646 2.52 3.4739997 3.8519998 3.8159997 Z "></path>
        </symbol>
        <symbol id="gD1BD0DB1A698C39E0F2179AE1049C9CB" overflow="visible">
            <path d="M 6.0119996 0.9 C 6.1019998 0.97199994 6.264 1.0079999 6.2819996 0.88199997 C 6.3359995 0.45 6.4799995 -0.17999999 6.4799995 -0.17999999 C 6.6239996 -0.234 6.7139997 -0.21599999 6.8219995 -0.17999999 C 7.2179995 0.144 7.8479996 0.41399997 8.945999 0.53999996 C 9.054 0.648 9.054 0.918 8.945999 1.0259999 C 7.7939997 1.1159999 7.6319995 1.458 7.6319995 2.34 L 7.6319995 10.4939995 C 7.6319995 11.664 7.7039995 12.384 7.7039995 12.384 C 7.7039995 12.509999 7.6319995 12.563999 7.47 12.563999 C 7.0199995 12.384 5.6699996 12.131999 4.95 12.077999 C 4.9139996 11.933999 4.95 11.646 5.0579996 11.537999 C 5.112 11.537999 5.166 11.537999 5.22 11.537999 C 6.0119996 11.483999 6.2099996 11.483999 6.2099996 10.061999 L 6.2099996 7.758 C 6.2099996 7.6319995 6.174 7.5959997 6.048 7.5959997 C 5.976 7.5959997 5.238 7.9019995 4.6439996 7.9019995 C 3.4559999 7.9019995 2.6639998 7.5059996 1.9439999 6.8219995 C 1.17 6.048 0.70199996 4.9859996 0.70199996 3.6539998 C 0.70199996 1.4399999 1.818 -0.17999999 3.7619998 -0.17999999 C 4.4639997 -0.17999999 5.1299996 0.17999999 6.0119996 0.9 Z M 6.2099996 2.2319999 C 6.2099996 1.8899999 6.174 1.7459999 5.922 1.53 C 5.2559996 0.95399994 4.68 0.66599995 4.23 0.66599995 C 3.258 0.66599995 2.25 1.7279999 2.25 3.978 C 2.25 5.2739997 2.5019999 5.994 2.7719998 6.3719997 C 3.33 7.2179995 4.086 7.272 4.4459996 7.272 C 5.094 7.272 5.5439997 7.0379996 5.904 6.6239996 C 6.1559997 6.3359995 6.2099996 6.2099996 6.2099996 5.652 Z "></path>
        </symbol>
        <symbol id="g44A3A57C294A7D28C0E458AA17C4160" overflow="visible">
            <path d="M 0.774 7.7219996 C 0.52199996 7.7219996 0.45 7.5059996 0.45 7.3619995 L 0.45 7.128 C 0.45 7.0379996 0.468 7.0199995 0.53999996 7.0199995 L 1.6019999 7.0199995 L 1.6019999 1.6019999 C 1.6019999 0.324 2.1599998 -0.17999999 2.988 -0.17999999 C 3.8159997 -0.17999999 4.7159996 0.21599999 5.4179997 1.0079999 C 5.382 1.188 5.2739997 1.296 5.094 1.3139999 C 4.626 0.95399994 4.086 0.80999994 3.6179998 0.80999994 C 3.132 0.80999994 3.024 1.3499999 3.024 2.4659998 L 3.024 7.0199995 L 4.896 7.0199995 C 5.0759997 7.0199995 5.3279996 7.0919995 5.3279996 7.2539997 L 5.3279996 7.614 C 5.3279996 7.686 5.2739997 7.7219996 5.184 7.7219996 L 3.024 7.7219996 L 3.024 8.424 C 3.024 9.594 3.096 10.313999 3.096 10.313999 C 3.096 10.422 3.0419998 10.476 2.952 10.476 C 2.8799999 10.476 2.718 10.403999 2.556 10.313999 C 2.3579998 10.205999 2.178 10.115999 1.9439999 10.061999 C 1.7279999 9.99 1.548 9.936 1.548 9.809999 C 1.548 9.594 1.6019999 9.719999 1.6019999 7.7219996 Z "></path>
        </symbol>
        <symbol id="gA874E8C8F04C2225205BA473545E833C" overflow="visible">
            <path d="M 3.0059998 5.148 C 3.0059998 5.5259995 3.1679997 5.7419996 3.3119998 5.904 C 3.9959998 6.5699997 4.9139996 6.9659996 5.6159997 6.9659996 C 5.976 6.9659996 6.3539996 6.732 6.5699997 6.318 C 6.7499995 5.9579997 6.786 5.4719996 6.786 4.9319997 L 6.786 2.1959999 C 6.786 0.71999997 6.606 0.648 5.6699996 0.55799997 C 5.58 0.45 5.58 0.072 5.6699996 -0.036 C 6.174 -0.018 6.786 0 7.5059996 0 C 8.226 0 8.82 -0.018 9.414 -0.036 C 9.504 0.072 9.504 0.45 9.414 0.55799997 C 8.405999 0.648 8.207999 0.71999997 8.207999 2.1959999 L 8.207999 4.878 C 8.207999 5.8679996 8.136 6.7499995 7.7219996 7.2899995 C 7.416 7.686 6.858 7.9019995 6.2279997 7.9019995 C 5.3459997 7.9019995 4.266 7.6679997 3.1679997 6.444 C 3.1679997 6.4259996 3.1499999 6.4259996 3.132 6.4079995 C 3.0779998 6.3359995 2.988 6.2279997 2.988 6.444 L 3.0059998 10.4939995 C 3.0059998 11.664 3.0779998 12.384 3.0779998 12.384 C 3.0779998 12.509999 3.0059998 12.563999 2.8439999 12.563999 C 2.3939998 12.384 1.0439999 12.131999 0.324 12.077999 C 0.288 11.933999 0.324 11.646 0.43199998 11.537999 C 0.48599997 11.537999 0.53999996 11.537999 0.594 11.537999 C 1.3859999 11.483999 1.5839999 11.483999 1.5839999 10.061999 L 1.5839999 2.1959999 C 1.5839999 0.70199996 1.3679999 0.63 0.324 0.55799997 C 0.21599999 0.45 0.21599999 0.072 0.324 -0.036 C 0.918 -0.018 1.5839999 0 2.304 0 C 2.988 0 3.5819998 -0.018 4.086 -0.036 C 4.194 0.072 4.194 0.45 4.086 0.55799997 C 3.1679997 0.63 3.0059998 0.70199996 3.0059998 2.1959999 Z "></path>
        </symbol>
        <symbol id="gC9B5ED0E285F097BC7C7D14EE47287FB" overflow="visible">
            <path d="M 0.738 3.6899998 C 0.738 1.854 1.9619999 -0.17999999 4.5179996 -0.17999999 C 5.6699996 -0.17999999 6.5519996 0.234 7.1639996 0.82799995 C 7.9739995 1.6199999 8.334 2.754 8.334 3.8519998 C 8.334 5.724 7.3079996 7.9019995 4.554 7.9019995 C 3.366 7.9019995 2.3939998 7.416 1.7279999 6.6419997 C 1.0799999 5.8679996 0.738 4.824 0.738 3.6899998 Z M 4.284 7.272 C 5.832 7.272 6.786 5.8679996 6.786 3.2759998 C 6.786 1.0079999 5.6159997 0.45 4.77 0.45 C 2.8979998 0.45 2.286 2.718 2.286 4.1039996 C 2.286 5.6699996 2.6639998 7.272 4.284 7.272 Z "></path>
        </symbol>
        <symbol id="g7D650183B0343F06871EF5C0203080AB" overflow="visible">
            <path d="M 3.1499999 2.1959999 L 3.1499999 7.0199995 L 4.824 7.0199995 C 4.9859996 7.0199995 5.238 7.0919995 5.238 7.2539997 L 5.238 7.614 C 5.238 7.686 5.184 7.7219996 5.094 7.7219996 L 3.1499999 7.7219996 L 3.1499999 8.747999 C 3.1499999 11.5199995 3.978 11.952 4.572 11.952 C 5.112 11.952 5.3999996 11.735999 5.652 11.106 C 5.7959995 10.782 5.994 10.53 6.3719997 10.53 C 6.6779995 10.53 7.1099997 10.908 7.1099997 11.268 C 7.1099997 11.573999 6.9119997 11.898 6.534 12.186 C 6.0659995 12.509999 5.5979996 12.563999 4.9139996 12.563999 C 3.402 12.563999 1.7279999 11.249999 1.7279999 8.441999 L 1.7279999 7.7219996 L 0.80999994 7.7219996 C 0.48599997 7.7219996 0.39599997 7.5059996 0.39599997 7.3619995 L 0.39599997 7.128 C 0.39599997 7.0379996 0.41399997 7.0199995 0.48599997 7.0199995 L 1.7279999 7.0199995 L 1.7279999 2.1959999 C 1.7279999 0.70199996 1.4399999 0.63 0.468 0.55799997 C 0.35999998 0.45 0.35999998 0.072 0.468 -0.036 C 1.0979999 -0.018 1.7279999 0 2.448 0 C 3.1679997 0 4.0319996 -0.018 4.6619997 -0.036 C 4.77 0.072 4.77 0.45 4.6619997 0.55799997 C 3.258 0.63 3.1499999 0.70199996 3.1499999 2.1959999 Z "></path>
        </symbol>
        <symbol id="g80658BF0042668A095C347B163F510C4" overflow="visible">
            <path d="M 7.1099997 11.358 C 6.0659995 11.502 6.1019998 11.844 4.338 11.844 C 2.52 11.844 0.918 10.638 0.918 8.73 C 0.918 6.8399997 2.484 5.976 4.068 5.364 C 5.148 4.95 6.4799995 4.4459996 6.4799995 2.682 C 6.4799995 1.224 5.6699996 0.468 4.23 0.468 C 2.556 0.468 1.476 1.242 1.0799999 3.024 C 0.84599996 3.096 0.66599995 3.06 0.48599997 2.9699998 C 0.55799997 1.5839999 0.63 1.1159999 0.84599996 0.234 C 1.9799999 0.234 2.484 -0.17999999 4.086 -0.17999999 C 4.896 -0.17999999 5.6699996 0.018 6.2999997 0.41399997 C 7.344 1.0619999 7.9919996 2.1599998 7.9919996 3.3119998 C 7.9919996 5.22 6.5519996 6.0659995 5.0759997 6.6239996 C 3.9959998 7.0199995 2.1959999 7.7039995 2.1959999 9.216 C 2.1959999 10.224 3.1139998 11.231999 4.1759996 11.231999 C 5.922 11.231999 6.4799995 10.115999 6.8399997 8.9279995 C 7.0379996 8.891999 7.272 8.91 7.4339995 9.035999 C 7.3619995 9.9 7.2899995 10.403999 7.1099997 11.358 Z "></path>
        </symbol>
        <symbol id="g67083FE9669A9DA792B374642F20894D" overflow="visible">
            <path d="M 1.548 2.1959999 C 1.548 0.70199996 1.3499999 0.63 0.34199998 0.55799997 C 0.234 0.45 0.234 0.072 0.34199998 -0.036 C 0.936 -0.018 1.548 0 2.268 0 C 2.8979998 0 3.4919999 -0.018 3.906 -0.036 C 4.014 0.072 4.014 0.45 3.906 0.55799997 C 3.1679997 0.63 2.9699998 0.70199996 2.9699998 2.1959999 L 2.9699998 3.7619998 C 3.3119998 3.744 3.564 3.7259998 3.744 3.672 C 3.942 3.5279999 4.1039996 3.366 4.3199997 3.0779998 L 5.634 1.3139999 C 6.1559997 0.612 6.3719997 0.26999998 6.39 0.053999998 C 6.39 0 6.4079995 -0.036 6.462 -0.036 C 6.8219995 -0.018 7.2179995 0 7.5779996 0 C 8.136 0 8.693999 -0.018 9.054 -0.036 C 9.162 0.072 9.162 0.45 9.054 0.55799997 C 8.441999 0.63 7.9919996 0.70199996 7.5059996 1.3139999 L 5.1299996 4.302 C 5.0579996 4.3919997 5.0039997 4.4639997 5.0039997 4.554 C 5.0039997 4.626 5.0039997 4.6619997 5.0759997 4.7339997 L 6.66 6.3719997 C 7.2 6.9479995 7.8299994 7.0919995 8.549999 7.1639996 C 8.658 7.272 8.658 7.6499996 8.549999 7.758 C 8.136 7.74 7.6319995 7.7219996 6.9839997 7.7219996 C 6.2999997 7.7219996 5.634 7.74 5.22 7.758 C 5.112 7.6499996 5.112 7.272 5.22 7.1639996 C 6.2279997 7.0919995 5.7959995 6.462 5.634 6.246 C 5.22 5.724 4.6619997 5.112 4.194 4.77 C 3.7979999 4.482 3.3119998 4.266 2.9699998 4.212 L 2.9699998 10.4939995 C 2.9699998 11.664 3.0419998 12.384 3.0419998 12.384 C 3.0419998 12.509999 2.9699998 12.563999 2.8079998 12.563999 C 2.3579998 12.384 1.0079999 12.131999 0.288 12.077999 C 0.25199997 11.933999 0.288 11.646 0.39599997 11.537999 C 0.45 11.537999 0.50399995 11.537999 0.55799997 11.537999 C 1.3499999 11.483999 1.548 11.483999 1.548 10.061999 Z "></path>
        </symbol>
        <symbol id="gF93B88125CFB904F07FD1BBB868F1EA0" overflow="visible">
            <path d="M 3.258 2.1959999 L 3.258 5.778 C 3.258 6.6779995 3.33 7.8299994 3.33 7.8299994 C 3.33 7.9019995 3.2399998 7.956 3.096 7.956 C 2.592 7.758 1.872 7.5959997 0.63 7.4339995 C 0.594 7.3259997 0.63 7.0379996 0.66599995 6.93 C 1.6559999 6.8399997 1.836 6.732 1.836 5.706 L 1.836 2.1959999 C 1.836 0.70199996 1.6379999 0.648 0.53999996 0.55799997 C 0.43199998 0.45 0.43199998 0.072 0.53999996 -0.036 C 1.134 -0.018 1.836 0 2.556 0 C 3.2759998 0 3.9599998 -0.018 4.554 -0.036 C 4.6619997 0.072 4.6619997 0.45 4.554 0.55799997 C 3.4559999 0.63 3.258 0.70199996 3.258 2.1959999 Z M 1.6199999 10.782 C 1.6199999 10.313999 2.0519998 9.846 2.484 9.846 C 2.988 9.846 3.4199998 10.332 3.4199998 10.709999 C 3.4199998 11.141999 3.0419998 11.646 2.556 11.646 C 2.1239998 11.646 1.6199999 11.214 1.6199999 10.782 Z "></path>
        </symbol>
        <symbol id="gF6215872A08B5BBE399AF9E86F4E3A64" overflow="visible">
            <path d="M 1.7099999 2.1959999 C 1.7099999 0.70199996 1.512 0.612 0.41399997 0.55799997 C 0.306 0.45 0.306 0.072 0.41399997 -0.036 C 1.0439999 -0.018 1.7099999 0 2.4299998 0 C 3.1499999 0 3.8339999 -0.018 4.428 -0.036 C 4.536 0.072 4.536 0.45 4.428 0.55799997 C 3.33 0.612 3.132 0.70199996 3.132 2.1959999 L 3.132 10.4939995 C 3.132 11.664 3.2039998 12.384 3.2039998 12.384 C 3.2039998 12.509999 3.132 12.563999 2.9699998 12.563999 C 2.52 12.384 1.17 12.131999 0.45 12.077999 C 0.41399997 11.933999 0.45 11.646 0.55799997 11.537999 C 1.6019999 11.466 1.7099999 11.412 1.7099999 10.061999 Z "></path>
        </symbol>
        <symbol id="g745B1184A4A2958AD04675260A72E34C" overflow="visible">
            <path d="M 0.86399996 2.484 C 0.936 1.6019999 0.98999995 0.756 0.98999995 0 C 1.17 0.036 1.3499999 0.053999998 1.4399999 0.053999998 C 1.566 0.053999998 1.6739999 0.053999998 1.8 0.018 C 2.286 -0.107999995 2.7719998 -0.17999999 3.438 -0.17999999 C 4.4459996 -0.17999999 6.2999997 0.306 6.2999997 2.0879998 C 6.2999997 3.3119998 5.4179997 4.0319996 4.194 4.482 C 3.1139998 4.896 2.3939998 5.166 2.3939998 6.1559997 C 2.3939998 6.8939996 3.0419998 7.3079996 3.6539998 7.3079996 C 4.0499997 7.3079996 5.094 7.1639996 5.3279996 5.634 C 5.436 5.5259995 5.7959995 5.5439997 5.904 5.652 C 5.9579997 6.2999997 5.994 6.9659996 6.0119996 7.5599995 C 5.454 7.6499996 4.5899997 7.9019995 3.6539998 7.9019995 C 2.3219998 7.9019995 1.1159999 7.0379996 1.1159999 5.8859997 C 1.1159999 4.572 1.7099999 4.014 3.096 3.438 C 4.5899997 2.826 4.9319997 2.448 4.9319997 1.6739999 C 4.9319997 0.79199994 4.068 0.41399997 3.402 0.41399997 C 2.6999998 0.41399997 2.304 0.648 2.1239998 0.84599996 C 1.7279999 1.26 1.53 2.0519998 1.4219999 2.5019999 C 1.3139999 2.61 0.97199994 2.592 0.86399996 2.484 Z "></path>
        </symbol>
        <symbol id="g3966E5AE94CB65EA1661A072BF26A7" overflow="visible">
            <path d="M 2.6639998 11.61 C 2.0159998 11.61 1.0619999 11.627999 0.34199998 11.646 C 0.234 11.537999 0.234 11.16 0.34199998 11.051999 C 1.6019999 10.997999 1.9079999 10.908 1.9079999 9.414 L 1.9079999 2.1959999 C 1.9079999 0.70199996 1.6019999 0.612 0.34199998 0.55799997 C 0.234 0.45 0.234 0.072 0.34199998 -0.036 C 1.0439999 -0.018 1.9979999 0 2.682 0 C 3.3479998 0 4.1039996 -0.036 5.9579997 -0.036 C 8.495999 -0.036 11.844 1.1159999 11.844 5.5439997 C 11.844 8.891999 9.089999 11.646 5.634 11.646 C 4.356 11.646 3.366 11.61 2.6639998 11.61 Z M 3.438 1.512 L 3.438 10.151999 C 3.438 10.782 4.068 11.033999 4.95 11.033999 C 8.837999 11.033999 10.115999 7.884 10.115999 5.112 C 10.115999 1.476 7.9379997 0.576 5.3999996 0.576 C 3.636 0.576 3.438 0.936 3.438 1.512 Z "></path>
        </symbol>
        <symbol id="g216EBE3D4459204285D4410C8CA7138D" overflow="visible">
            <path d="M 2.8079998 6.6239996 C 2.79 7.1639996 2.754 7.6319995 2.6639998 7.812 C 2.6279998 7.9019995 2.592 7.956 2.448 7.956 C 1.9439999 7.758 1.476 7.5959997 0.234 7.4339995 C 0.19799998 7.3259997 0.234 7.0379996 0.26999998 6.93 C 1.242 6.8399997 1.4399999 6.7499995 1.4399999 5.706 L 1.4399999 -1.9799999 C 1.4399999 -3.4739997 1.242 -3.564 0.144 -3.6179998 C 0.036 -3.7259998 0.036 -4.1039996 0.144 -4.212 C 0.774 -4.194 1.4399999 -4.1759996 2.1599998 -4.1759996 C 2.8799999 -4.1759996 3.744 -4.194 4.338 -4.212 C 4.4459996 -4.1039996 4.4459996 -3.7259998 4.338 -3.6179998 C 3.06 -3.5459998 2.862 -3.4739997 2.862 -1.9799999 L 2.862 -0.036 C 2.862 0.19799998 2.9339998 0.17999999 3.1139998 0.107999995 C 3.564 -0.072 4.1039996 -0.17999999 4.68 -0.17999999 C 5.6879997 -0.17999999 6.588 0.12599999 7.3259997 0.82799995 C 8.172 1.6559999 8.658 2.7719998 8.658 4.23 C 8.658 6.1379995 7.3079996 7.9019995 5.4719996 7.9019995 C 4.6439996 7.9019995 3.7259998 7.3619995 3.0059998 6.5519996 C 2.8979998 6.444 2.826 6.444 2.8079998 6.6239996 Z M 3.1499999 5.9579997 C 3.6179998 6.534 4.4459996 7.074 4.968 7.074 C 6.12 7.074 7.1099997 5.778 7.1099997 3.744 C 7.1099997 2.268 6.588 0.43199998 4.572 0.43199998 C 4.2479997 0.43199998 3.6179998 0.52199996 3.294 0.80999994 C 2.9339998 1.134 2.862 1.242 2.862 1.8899999 L 2.862 5.166 C 2.862 5.5439997 2.9339998 5.706 3.1499999 5.9579997 Z "></path>
        </symbol>
    </defs>
    <defs id="clip-path">
        <clipPath id="cFAF4A5B70E97D0974F5C39459B19C41E">
            <path d="M 0 0 L 170.07874 0 L 170.07874 113.385826 L 0 113.385826 Z "></path>
        </clipPath>
    </defs>
</svg>