<svg version="1.1" xmlns="http://www.w3.org/2000/svg" viewBox="0 0 415.71707670963804 381.20675886850245" width="415.71707670963804" height="381.20675886850245"><!-- svg-source:excalidraw --><metadata></metadata><defs><style class="style-fonts">
      </style></defs><rect x="0" y="0" width="415.71707670963804" height="381.20675886850245" fill="#ffffff"></rect><g stroke-linecap="round" transform="translate(234.6829225166755 130.11358132312796) rotate(0 39.23949483870396 35.84417471566759)"><path d="M78.48 35.84 C78.48 37.71, 78.32 39.61, 78 41.45 C77.68 43.3, 77.19 45.14, 76.56 46.92 C75.93 48.7, 75.13 50.45, 74.2 52.12 C73.27 53.78, 72.19 55.4, 70.98 56.91 C69.78 58.42, 68.43 59.87, 66.99 61.19 C65.54 62.51, 63.96 63.74, 62.3 64.84 C60.65 65.94, 58.88 66.93, 57.05 67.78 C55.23 68.63, 53.31 69.36, 51.37 69.93 C49.42 70.51, 47.4 70.95, 45.38 71.25 C43.36 71.54, 41.29 71.69, 39.24 71.69 C37.19 71.69, 35.12 71.54, 33.1 71.25 C31.08 70.95, 29.06 70.51, 27.11 69.93 C25.17 69.36, 23.25 68.63, 21.43 67.78 C19.6 66.93, 17.83 65.94, 16.18 64.84 C14.52 63.74, 12.94 62.51, 11.49 61.19 C10.05 59.87, 8.7 58.42, 7.49 56.91 C6.29 55.4, 5.21 53.78, 4.28 52.12 C3.35 50.45, 2.55 48.7, 1.92 46.92 C1.29 45.14, 0.8 43.3, 0.48 41.45 C0.16 39.61, 0 37.71, 0 35.84 C0 33.98, 0.16 32.08, 0.48 30.24 C0.8 28.39, 1.29 26.55, 1.92 24.77 C2.55 22.99, 3.35 21.24, 4.28 19.57 C5.21 17.91, 6.29 16.29, 7.49 14.78 C8.7 13.26, 10.05 11.82, 11.49 10.5 C12.94 9.18, 14.52 7.94, 16.18 6.85 C17.83 5.75, 19.6 4.76, 21.43 3.91 C23.25 3.06, 25.17 2.33, 27.11 1.75 C29.06 1.18, 31.08 0.73, 33.1 0.44 C35.12 0.15, 37.19 0, 39.24 0 C41.29 0, 43.36 0.15, 45.38 0.44 C47.4 0.73, 49.42 1.18, 51.37 1.75 C53.31 2.33, 55.23 3.06, 57.05 3.91 C58.88 4.76, 60.65 5.75, 62.3 6.85 C63.96 7.94, 65.54 9.18, 66.99 10.5 C68.43 11.82, 69.78 13.26, 70.98 14.78 C72.19 16.29, 73.27 17.91, 74.2 19.57 C75.13 21.24, 75.93 22.99, 76.56 24.77 C77.19 26.55, 77.68 28.39, 78 30.24 C78.32 32.08, 78.4 34.91, 78.48 35.84 C78.56 36.78, 78.56 34.91, 78.48 35.84" stroke="#1e1e1e" stroke-width="2" fill="none"></path></g><g stroke-linecap="round" transform="translate(234.3792665557421 209.5509869501232) rotate(0 39.23949483870396 35.844174715667606)"><path d="M78.48 35.84 C78.48 37.71, 78.32 39.61, 78 41.45 C77.68 43.3, 77.19 45.14, 76.56 46.92 C75.93 48.7, 75.13 50.45, 74.2 52.12 C73.27 53.78, 72.19 55.4, 70.98 56.91 C69.78 58.42, 68.43 59.87, 66.99 61.19 C65.54 62.51, 63.96 63.74, 62.3 64.84 C60.65 65.94, 58.88 66.93, 57.05 67.78 C55.23 68.63, 53.31 69.36, 51.37 69.93 C49.42 70.51, 47.4 70.95, 45.38 71.25 C43.36 71.54, 41.29 71.69, 39.24 71.69 C37.19 71.69, 35.12 71.54, 33.1 71.25 C31.08 70.95, 29.06 70.51, 27.11 69.93 C25.17 69.36, 23.25 68.63, 21.43 67.78 C19.6 66.93, 17.83 65.94, 16.18 64.84 C14.52 63.74, 12.94 62.51, 11.49 61.19 C10.05 59.87, 8.7 58.42, 7.49 56.91 C6.29 55.4, 5.21 53.78, 4.28 52.12 C3.35 50.45, 2.55 48.7, 1.92 46.92 C1.29 45.14, 0.8 43.3, 0.48 41.45 C0.16 39.61, 0 37.71, 0 35.84 C0 33.98, 0.16 32.08, 0.48 30.24 C0.8 28.39, 1.29 26.55, 1.92 24.77 C2.55 22.99, 3.35 21.24, 4.28 19.57 C5.21 17.91, 6.29 16.29, 7.49 14.78 C8.7 13.26, 10.05 11.82, 11.49 10.5 C12.94 9.18, 14.52 7.94, 16.18 6.85 C17.83 5.75, 19.6 4.76, 21.43 3.91 C23.25 3.06, 25.17 2.33, 27.11 1.75 C29.06 1.18, 31.08 0.73, 33.1 0.44 C35.12 0.15, 37.19 0, 39.24 0 C41.29 0, 43.36 0.15, 45.38 0.44 C47.4 0.73, 49.42 1.18, 51.37 1.75 C53.31 2.33, 55.23 3.06, 57.05 3.91 C58.88 4.76, 60.65 5.75, 62.3 6.85 C63.96 7.94, 65.54 9.18, 66.99 10.5 C68.43 11.82, 69.78 13.26, 70.98 14.78 C72.19 16.29, 73.27 17.91, 74.2 19.57 C75.13 21.24, 75.93 22.99, 76.56 24.77 C77.19 26.55, 77.68 28.39, 78 30.24 C78.32 32.08, 78.4 34.91, 78.48 35.84 C78.56 36.78, 78.56 34.91, 78.48 35.84" stroke="#1e1e1e" stroke-width="2" fill="none"></path></g><g stroke-linecap="round" transform="translate(327.23808703223006 291.0785218330858) rotate(0 39.23949483870396 35.844174715667606)"><path d="M78.48 35.84 C78.48 37.71, 78.32 39.61, 78 41.45 C77.68 43.3, 77.19 45.14, 76.56 46.92 C75.93 48.7, 75.13 50.45, 74.2 52.12 C73.27 53.78, 72.19 55.4, 70.98 56.91 C69.78 58.42, 68.43 59.87, 66.99 61.19 C65.54 62.51, 63.96 63.74, 62.3 64.84 C60.65 65.94, 58.88 66.93, 57.05 67.78 C55.23 68.63, 53.31 69.36, 51.37 69.93 C49.42 70.51, 47.4 70.95, 45.38 71.25 C43.36 71.54, 41.29 71.69, 39.24 71.69 C37.19 71.69, 35.12 71.54, 33.1 71.25 C31.08 70.95, 29.06 70.51, 27.11 69.93 C25.17 69.36, 23.25 68.63, 21.43 67.78 C19.6 66.93, 17.83 65.94, 16.18 64.84 C14.52 63.74, 12.94 62.51, 11.49 61.19 C10.05 59.87, 8.7 58.42, 7.49 56.91 C6.29 55.4, 5.21 53.78, 4.28 52.12 C3.35 50.45, 2.55 48.7, 1.92 46.92 C1.29 45.14, 0.8 43.3, 0.48 41.45 C0.16 39.61, 0 37.71, 0 35.84 C0 33.98, 0.16 32.08, 0.48 30.24 C0.8 28.39, 1.29 26.55, 1.92 24.77 C2.55 22.99, 3.35 21.24, 4.28 19.57 C5.21 17.91, 6.29 16.29, 7.49 14.78 C8.7 13.26, 10.05 11.82, 11.49 10.5 C12.94 9.18, 14.52 7.94, 16.18 6.85 C17.83 5.75, 19.6 4.76, 21.43 3.91 C23.25 3.06, 25.17 2.33, 27.11 1.75 C29.06 1.18, 31.08 0.73, 33.1 0.44 C35.12 0.15, 37.19 0, 39.24 0 C41.29 0, 43.36 0.15, 45.38 0.44 C47.4 0.73, 49.42 1.18, 51.37 1.75 C53.31 2.33, 55.23 3.06, 57.05 3.91 C58.88 4.76, 60.65 5.75, 62.3 6.85 C63.96 7.94, 65.54 9.18, 66.99 10.5 C68.43 11.82, 69.78 13.26, 70.98 14.78 C72.19 16.29, 73.27 17.91, 74.2 19.57 C75.13 21.24, 75.93 22.99, 76.56 24.77 C77.19 26.55, 77.68 28.39, 78 30.24 C78.32 32.08, 78.4 34.91, 78.48 35.84 C78.56 36.78, 78.56 34.91, 78.48 35.84" stroke="#1e1e1e" stroke-width="2" fill="none"></path></g><g stroke-linecap="round" transform="translate(326.3075867411824 210.47718111517523) rotate(0 39.23949483870396 35.844174715667606)"><path d="M78.48 35.84 C78.48 37.71, 78.32 39.61, 78 41.45 C77.68 43.3, 77.19 45.14, 76.56 46.92 C75.93 48.7, 75.13 50.45, 74.2 52.12 C73.27 53.78, 72.19 55.4, 70.98 56.91 C69.78 58.42, 68.43 59.87, 66.99 61.19 C65.54 62.51, 63.96 63.74, 62.3 64.84 C60.65 65.94, 58.88 66.93, 57.05 67.78 C55.23 68.63, 53.31 69.36, 51.37 69.93 C49.42 70.51, 47.4 70.95, 45.38 71.25 C43.36 71.54, 41.29 71.69, 39.24 71.69 C37.19 71.69, 35.12 71.54, 33.1 71.25 C31.08 70.95, 29.06 70.51, 27.11 69.93 C25.17 69.36, 23.25 68.63, 21.43 67.78 C19.6 66.93, 17.83 65.94, 16.18 64.84 C14.52 63.74, 12.94 62.51, 11.49 61.19 C10.05 59.87, 8.7 58.42, 7.49 56.91 C6.29 55.4, 5.21 53.78, 4.28 52.12 C3.35 50.45, 2.55 48.7, 1.92 46.92 C1.29 45.14, 0.8 43.3, 0.48 41.45 C0.16 39.61, 0 37.71, 0 35.84 C0 33.98, 0.16 32.08, 0.48 30.24 C0.8 28.39, 1.29 26.55, 1.92 24.77 C2.55 22.99, 3.35 21.24, 4.28 19.57 C5.21 17.91, 6.29 16.29, 7.49 14.78 C8.7 13.26, 10.05 11.82, 11.49 10.5 C12.94 9.18, 14.52 7.94, 16.18 6.85 C17.83 5.75, 19.6 4.76, 21.43 3.91 C23.25 3.06, 25.17 2.33, 27.11 1.75 C29.06 1.18, 31.08 0.73, 33.1 0.44 C35.12 0.15, 37.19 0, 39.24 0 C41.29 0, 43.36 0.15, 45.38 0.44 C47.4 0.73, 49.42 1.18, 51.37 1.75 C53.31 2.33, 55.23 3.06, 57.05 3.91 C58.88 4.76, 60.65 5.75, 62.3 6.85 C63.96 7.94, 65.54 9.18, 66.99 10.5 C68.43 11.82, 69.78 13.26, 70.98 14.78 C72.19 16.29, 73.27 17.91, 74.2 19.57 C75.13 21.24, 75.93 22.99, 76.56 24.77 C77.19 26.55, 77.68 28.39, 78 30.24 C78.32 32.08, 78.4 34.91, 78.48 35.84 C78.56 36.78, 78.56 34.91, 78.48 35.84" stroke="#1e1e1e" stroke-width="2" fill="none"></path></g><g stroke-linecap="round" transform="translate(325.0488158786848 130.44400590713954) rotate(0 39.23949483870396 35.844174715667606)"><path d="M78.48 35.84 C78.48 37.71, 78.32 39.61, 78 41.45 C77.68 43.3, 77.19 45.14, 76.56 46.92 C75.93 48.7, 75.13 50.45, 74.2 52.12 C73.27 53.78, 72.19 55.4, 70.98 56.91 C69.78 58.42, 68.43 59.87, 66.99 61.19 C65.54 62.51, 63.96 63.74, 62.3 64.84 C60.65 65.94, 58.88 66.93, 57.05 67.78 C55.23 68.63, 53.31 69.36, 51.37 69.93 C49.42 70.51, 47.4 70.95, 45.38 71.25 C43.36 71.54, 41.29 71.69, 39.24 71.69 C37.19 71.69, 35.12 71.54, 33.1 71.25 C31.08 70.95, 29.06 70.51, 27.11 69.93 C25.17 69.36, 23.25 68.63, 21.43 67.78 C19.6 66.93, 17.83 65.94, 16.18 64.84 C14.52 63.74, 12.94 62.51, 11.49 61.19 C10.05 59.87, 8.7 58.42, 7.49 56.91 C6.29 55.4, 5.21 53.78, 4.28 52.12 C3.35 50.45, 2.55 48.7, 1.92 46.92 C1.29 45.14, 0.8 43.3, 0.48 41.45 C0.16 39.61, 0 37.71, 0 35.84 C0 33.98, 0.16 32.08, 0.48 30.24 C0.8 28.39, 1.29 26.55, 1.92 24.77 C2.55 22.99, 3.35 21.24, 4.28 19.57 C5.21 17.91, 6.29 16.29, 7.49 14.78 C8.7 13.26, 10.05 11.82, 11.49 10.5 C12.94 9.18, 14.52 7.94, 16.18 6.85 C17.83 5.75, 19.6 4.76, 21.43 3.91 C23.25 3.06, 25.17 2.33, 27.11 1.75 C29.06 1.18, 31.08 0.73, 33.1 0.44 C35.12 0.15, 37.19 0, 39.24 0 C41.29 0, 43.36 0.15, 45.38 0.44 C47.4 0.73, 49.42 1.18, 51.37 1.75 C53.31 2.33, 55.23 3.06, 57.05 3.91 C58.88 4.76, 60.65 5.75, 62.3 6.85 C63.96 7.94, 65.54 9.18, 66.99 10.5 C68.43 11.82, 69.78 13.26, 70.98 14.78 C72.19 16.29, 73.27 17.91, 74.2 19.57 C75.13 21.24, 75.93 22.99, 76.56 24.77 C77.19 26.55, 77.68 28.39, 78 30.24 C78.32 32.08, 78.4 34.91, 78.48 35.84 C78.56 36.78, 78.56 34.91, 78.48 35.84" stroke="#1e1e1e" stroke-width="2" fill="none"></path></g><g stroke-linecap="round" transform="translate(324.118315587637 49.84266518922894) rotate(0 39.23949483870396 35.844174715667606)"><path d="M78.48 35.84 C78.48 37.71, 78.32 39.61, 78 41.45 C77.68 43.3, 77.19 45.14, 76.56 46.92 C75.93 48.7, 75.13 50.45, 74.2 52.12 C73.27 53.78, 72.19 55.4, 70.98 56.91 C69.78 58.42, 68.43 59.87, 66.99 61.19 C65.54 62.51, 63.96 63.74, 62.3 64.84 C60.65 65.94, 58.88 66.93, 57.05 67.78 C55.23 68.63, 53.31 69.36, 51.37 69.93 C49.42 70.51, 47.4 70.95, 45.38 71.25 C43.36 71.54, 41.29 71.69, 39.24 71.69 C37.19 71.69, 35.12 71.54, 33.1 71.25 C31.08 70.95, 29.06 70.51, 27.11 69.93 C25.17 69.36, 23.25 68.63, 21.43 67.78 C19.6 66.93, 17.83 65.94, 16.18 64.84 C14.52 63.74, 12.94 62.51, 11.49 61.19 C10.05 59.87, 8.7 58.42, 7.49 56.91 C6.29 55.4, 5.21 53.78, 4.28 52.12 C3.35 50.45, 2.55 48.7, 1.92 46.92 C1.29 45.14, 0.8 43.3, 0.48 41.45 C0.16 39.61, 0 37.71, 0 35.84 C0 33.98, 0.16 32.08, 0.48 30.24 C0.8 28.39, 1.29 26.55, 1.92 24.77 C2.55 22.99, 3.35 21.24, 4.28 19.57 C5.21 17.91, 6.29 16.29, 7.49 14.78 C8.7 13.26, 10.05 11.82, 11.49 10.5 C12.94 9.18, 14.52 7.94, 16.18 6.85 C17.83 5.75, 19.6 4.76, 21.43 3.91 C23.25 3.06, 25.17 2.33, 27.11 1.75 C29.06 1.18, 31.08 0.73, 33.1 0.44 C35.12 0.15, 37.19 0, 39.24 0 C41.29 0, 43.36 0.15, 45.38 0.44 C47.4 0.73, 49.42 1.18, 51.37 1.75 C53.31 2.33, 55.23 3.06, 57.05 3.91 C58.88 4.76, 60.65 5.75, 62.3 6.85 C63.96 7.94, 65.54 9.18, 66.99 10.5 C68.43 11.82, 69.78 13.26, 70.98 14.78 C72.19 16.29, 73.27 17.91, 74.2 19.57 C75.13 21.24, 75.93 22.99, 76.56 24.77 C77.19 26.55, 77.68 28.39, 78 30.24 C78.32 32.08, 78.4 34.91, 78.48 35.84 C78.56 36.78, 78.56 34.91, 78.48 35.84" stroke="#1e1e1e" stroke-width="2" fill="none"></path></g><g stroke-linecap="round" transform="translate(107.60255189189985 153.3764755378746) rotate(0 55.38984680175781 50.59706691937234)"><path d="M110.78 50.6 C110.78 52.8, 110.62 55.02, 110.31 57.2 C109.99 59.38, 109.52 61.57, 108.89 63.69 C108.27 65.82, 107.49 67.93, 106.56 69.96 C105.64 71.99, 104.56 73.99, 103.36 75.9 C102.15 77.8, 100.8 79.65, 99.33 81.4 C97.87 83.15, 96.26 84.82, 94.56 86.37 C92.85 87.93, 91.02 89.4, 89.11 90.74 C87.2 92.08, 85.17 93.31, 83.08 94.42 C81 95.52, 78.81 96.5, 76.59 97.34 C74.36 98.19, 72.05 98.9, 69.73 99.47 C67.4 100.04, 65.01 100.47, 62.62 100.76 C60.23 101.05, 57.8 101.19, 55.39 101.19 C52.98 101.19, 50.55 101.05, 48.16 100.76 C45.77 100.47, 43.38 100.04, 41.05 99.47 C38.73 98.9, 36.42 98.19, 34.19 97.34 C31.97 96.5, 29.78 95.52, 27.69 94.42 C25.61 93.31, 23.58 92.08, 21.67 90.74 C19.76 89.4, 17.93 87.93, 16.22 86.37 C14.52 84.82, 12.91 83.15, 11.45 81.4 C9.98 79.65, 8.63 77.8, 7.42 75.9 C6.22 73.99, 5.14 71.99, 4.22 69.96 C3.29 67.93, 2.51 65.82, 1.89 63.69 C1.26 61.57, 0.79 59.38, 0.47 57.2 C0.16 55.02, 0 52.8, 0 50.6 C0 48.4, 0.16 46.18, 0.47 43.99 C0.79 41.81, 1.26 39.63, 1.89 37.5 C2.51 35.38, 3.29 33.27, 4.22 31.23 C5.14 29.2, 6.22 27.21, 7.42 25.3 C8.63 23.39, 9.98 21.54, 11.45 19.8 C12.91 18.05, 14.52 16.38, 16.22 14.82 C17.93 13.26, 19.76 11.8, 21.67 10.46 C23.58 9.12, 25.61 7.88, 27.69 6.78 C29.78 5.68, 31.97 4.69, 34.19 3.85 C36.42 3.01, 38.73 2.29, 41.05 1.72 C43.38 1.15, 45.77 0.72, 48.16 0.43 C50.55 0.15, 52.98 0, 55.39 0 C57.8 0, 60.23 0.15, 62.62 0.43 C65.01 0.72, 67.4 1.15, 69.73 1.72 C72.05 2.29, 74.36 3.01, 76.59 3.85 C78.81 4.69, 81 5.68, 83.08 6.78 C85.17 7.88, 87.2 9.12, 89.11 10.46 C91.02 11.8, 92.85 13.26, 94.56 14.82 C96.26 16.38, 97.87 18.05, 99.33 19.8 C100.8 21.54, 102.15 23.39, 103.36 25.3 C104.56 27.21, 105.64 29.2, 106.56 31.23 C107.49 33.27, 108.27 35.38, 108.89 37.5 C109.52 39.63, 109.99 41.81, 110.31 43.99 C110.62 46.18, 110.7 49.5, 110.78 50.6 C110.86 51.7, 110.86 49.5, 110.78 50.6" stroke="#1e1e1e" stroke-width="2" fill="none"></path></g><g transform="translate(146.03363339160595 173.64761659757252) rotate(0 -1.666808015529213 11.226925817105865)" stroke="none"><path fill="#e03131" d="M -0.00,2.60 Q -0.00,2.60 -0.84,2.64 -1.68,2.68 -2.94,2.99 -4.20,3.29 -5.26,3.94 -6.31,4.59 -6.43,6.12 -6.54,7.66 -6.76,8.78 -6.98,9.91 -6.92,11.13 -6.87,12.35 -6.69,13.54 -6.51,14.72 -5.89,15.62 -5.28,16.53 -3.69,17.12 -2.11,17.71 -0.98,17.96 0.14,18.22 1.32,18.17 2.50,18.12 5.28,18.42 8.06,18.72 8.63,18.97 9.20,19.22 9.66,19.63 10.12,20.05 10.43,20.59 10.73,21.14 10.85,21.75 10.96,22.36 10.88,22.98 10.79,23.59 10.51,24.15 10.23,24.71 9.79,25.15 9.35,25.58 8.79,25.86 8.23,26.13 7.62,26.22 7.00,26.30 6.39,26.18 5.78,26.06 5.24,25.75 4.70,25.44 4.28,24.98 3.87,24.51 3.62,23.94 3.38,23.37 3.33,22.75 3.28,22.13 3.43,21.52 3.59,20.92 3.92,20.40 4.26,19.87 4.75,19.48 5.23,19.10 5.82,18.88 6.40,18.67 7.03,18.66 7.65,18.64 8.24,18.83 8.84,19.01 9.34,19.38 9.85,19.74 10.21,20.25 10.57,20.75 10.75,21.35 10.93,21.95 10.91,22.57 10.89,23.19 10.68,23.77 10.46,24.36 10.07,24.84 9.68,25.32 9.15,25.66 8.62,25.99 8.02,26.14 7.42,26.29 6.80,26.24 6.17,26.18 6.18,26.18 6.18,26.18 4.76,25.99 3.35,25.80 2.27,25.79 1.19,25.78 0.06,25.73 -1.06,25.69 -2.37,25.36 -3.67,25.03 -4.71,24.61 -5.75,24.20 -6.90,23.64 -8.05,23.08 -9.14,22.42 -10.23,21.76 -11.10,20.80 -11.97,19.85 -12.61,18.72 -13.25,17.60 -13.59,16.56 -13.93,15.53 -13.99,14.27 -14.05,13.02 -14.02,11.91 -13.99,10.80 -13.90,9.72 -13.81,8.63 -13.57,7.57 -13.32,6.51 -13.08,5.39 -12.83,4.28 -12.51,3.19 -12.20,2.11 -11.51,1.18 -10.81,0.26 -9.91,-0.39 -9.00,-1.05 -7.69,-1.63 -6.39,-2.22 -5.10,-2.47 -3.82,-2.72 -2.75,-2.70 -1.67,-2.68 -0.83,-2.64 0.00,-2.60 0.31,-2.56 0.62,-2.52 0.91,-2.41 1.21,-2.30 1.46,-2.12 1.72,-1.94 1.93,-1.70 2.14,-1.47 2.28,-1.19 2.43,-0.91 2.50,-0.61 2.58,-0.31 2.58,0.00 2.58,0.31 2.50,0.62 2.43,0.92 2.28,1.20 2.13,1.47 1.93,1.71 1.72,1.94 1.46,2.12 1.20,2.30 0.91,2.41 0.61,2.52 0.30,2.56 -0.00,2.60 -0.00,2.60 L -0.00,2.60 Z"></path></g><g transform="translate(191.35270052059386 170.2127751270759) rotate(0 1.2750111471953716 14.232409446675746)" stroke="none"><path fill="#e03131" d="M 2.54,-0.00 Q 2.54,-0.00 2.58,0.90 2.63,1.81 2.72,2.95 2.81,4.09 2.90,5.22 3.00,6.36 3.08,7.96 3.15,9.57 3.23,10.64 3.30,11.71 3.53,13.16 3.77,14.61 4.00,16.07 4.23,17.52 4.41,18.66 4.58,19.80 4.82,21.23 5.05,22.65 5.28,23.97 5.50,25.29 5.67,26.23 5.84,27.17 5.95,27.73 6.07,28.29 6.01,28.86 5.94,29.43 5.70,29.94 5.46,30.46 5.06,30.87 4.67,31.29 4.16,31.55 3.65,31.82 3.09,31.90 2.52,31.99 1.96,31.90 1.40,31.80 0.89,31.53 0.39,31.26 0.00,30.84 -0.38,30.42 -0.62,29.90 -0.86,29.38 -0.91,28.81 -0.97,28.25 -0.85,27.69 -0.72,27.13 -0.42,26.64 -0.12,26.16 0.30,25.79 0.74,25.42 1.28,25.21 1.81,25.00 2.38,24.98 2.95,24.95 3.50,25.11 4.05,25.26 4.52,25.59 4.99,25.91 5.33,26.37 5.68,26.82 5.86,27.37 6.04,27.91 6.03,28.48 6.03,29.05 5.84,29.59 5.66,30.13 5.31,30.59 4.96,31.04 4.48,31.36 4.01,31.68 3.46,31.83 2.90,31.97 2.33,31.94 1.76,31.91 1.23,31.69 0.70,31.48 0.27,31.10 -0.15,30.73 -0.44,30.24 -0.74,29.75 -0.74,29.75 -0.74,29.75 -1.08,27.70 -1.43,25.66 -1.62,24.35 -1.81,23.03 -2.05,21.44 -2.30,19.85 -2.44,18.74 -2.58,17.63 -2.74,16.08 -2.89,14.52 -3.00,13.36 -3.11,12.19 -3.13,10.88 -3.15,9.57 -3.07,7.96 -2.99,6.36 -2.90,5.23 -2.81,4.09 -2.72,2.95 -2.62,1.81 -2.58,0.91 -2.54,0.00 -2.51,-0.30 -2.47,-0.60 -2.36,-0.89 -2.25,-1.18 -2.08,-1.43 -1.90,-1.68 -1.67,-1.89 -1.44,-2.09 -1.17,-2.23 -0.90,-2.38 -0.60,-2.45 -0.30,-2.52 -0.00,-2.52 0.30,-2.52 0.60,-2.45 0.90,-2.38 1.17,-2.24 1.44,-2.09 1.67,-1.89 1.90,-1.69 2.07,-1.43 2.25,-1.18 2.36,-0.89 2.47,-0.61 2.50,-0.30 2.54,-0.00 2.54,-0.00 L 2.54,-0.00 Z"></path></g><g transform="translate(150.506790236903 210.07593561737988) rotate(0 -2.4651221673188672 12.123181214635053)" stroke="none"><path fill="#1971c2" d="M 0.12,2.52 Q 0.12,2.52 -0.73,2.61 -1.60,2.69 -2.47,3.40 -3.35,4.11 -3.96,5.05 -4.56,6.00 -4.88,7.12 -5.21,8.24 -5.50,9.77 -5.80,11.31 -5.57,12.48 -5.34,13.65 -4.30,14.28 -3.27,14.90 -2.49,15.87 -1.71,16.83 -0.76,17.43 0.18,18.03 1.54,18.84 2.90,19.66 4.12,20.19 5.34,20.72 5.87,21.03 6.40,21.34 6.80,21.81 7.20,22.27 7.43,22.84 7.66,23.40 7.70,24.02 7.74,24.63 7.58,25.22 7.42,25.81 7.08,26.32 6.74,26.83 6.25,27.20 5.77,27.58 5.19,27.78 4.61,27.98 4.00,27.98 3.39,27.99 2.80,27.80 2.22,27.61 1.73,27.24 1.24,26.87 0.89,26.37 0.54,25.86 0.38,25.28 0.21,24.69 0.24,24.08 0.26,23.46 0.49,22.89 0.71,22.32 1.10,21.85 1.49,21.38 2.02,21.06 2.54,20.74 3.14,20.61 3.73,20.47 4.34,20.53 4.95,20.59 5.51,20.84 6.07,21.10 6.52,21.52 6.96,21.93 7.26,22.47 7.55,23.01 7.65,23.61 7.75,24.22 7.66,24.82 7.57,25.43 7.28,25.97 7.00,26.52 6.56,26.94 6.12,27.37 5.56,27.63 5.01,27.89 4.40,27.96 3.79,28.03 3.19,27.90 2.59,27.78 2.59,27.78 2.60,27.78 0.91,26.99 -0.76,26.20 -2.01,25.45 -3.26,24.71 -4.21,24.06 -5.16,23.41 -6.09,22.59 -7.01,21.78 -7.87,20.65 -8.73,19.53 -9.79,18.56 -10.86,17.60 -11.49,16.55 -12.12,15.51 -12.28,14.14 -12.43,12.77 -12.39,11.57 -12.34,10.37 -12.12,9.15 -11.90,7.94 -11.62,6.51 -11.33,5.08 -10.82,4.02 -10.31,2.95 -9.40,1.94 -8.49,0.92 -7.63,0.17 -6.78,-0.57 -5.61,-1.29 -4.44,-2.00 -3.16,-2.26 -1.88,-2.52 -1.00,-2.52 -0.12,-2.52 0.17,-2.50 0.48,-2.48 0.77,-2.38 1.06,-2.29 1.32,-2.13 1.57,-1.97 1.79,-1.75 2.00,-1.53 2.16,-1.27 2.31,-1.01 2.40,-0.71 2.49,-0.42 2.50,-0.12 2.52,0.18 2.46,0.47 2.40,0.77 2.27,1.05 2.14,1.33 1.95,1.56 1.76,1.80 1.52,1.99 1.28,2.17 1.00,2.29 0.72,2.42 0.42,2.47 0.12,2.52 0.12,2.52 L 0.12,2.52 Z"></path></g><g transform="translate(194.63736187147038 214.1931666420231) rotate(0 0.12896571631071652 10.191894636004093)" stroke="none"><path fill="#1971c2" d="M 2.59,-0.00 Q 2.59,-0.00 2.63,1.05 2.66,2.10 2.76,3.42 2.86,4.75 2.95,6.07 3.04,7.39 3.11,8.69 3.18,9.99 3.24,11.33 3.30,12.67 3.35,13.80 3.39,14.93 3.44,16.14 3.49,17.35 3.62,18.86 3.75,20.37 3.66,20.93 3.57,21.49 3.30,21.99 3.04,22.49 2.63,22.88 2.22,23.27 1.70,23.51 1.19,23.75 0.63,23.81 0.07,23.87 -0.47,23.75 -1.03,23.63 -1.51,23.34 -2.00,23.05 -2.36,22.61 -2.73,22.18 -2.94,21.66 -3.15,21.13 -3.18,20.57 -3.21,20.00 -3.06,19.46 -2.91,18.91 -2.59,18.45 -2.28,17.98 -1.83,17.64 -1.38,17.29 -0.84,17.11 -0.31,16.93 0.25,16.93 0.82,16.93 1.35,17.11 1.89,17.29 2.34,17.63 2.79,17.97 3.11,18.44 3.42,18.91 3.58,19.45 3.73,20.00 3.70,20.56 3.67,21.13 3.46,21.65 3.25,22.18 2.88,22.61 2.52,23.04 2.03,23.33 1.55,23.62 1.00,23.75 0.45,23.87 -0.11,23.81 -0.67,23.75 -1.18,23.51 -1.70,23.27 -2.11,22.88 -2.52,22.50 -2.78,22.00 -3.05,21.50 -3.14,20.94 -3.23,20.38 -3.23,20.38 -3.23,20.38 -3.36,18.87 -3.48,17.35 -3.43,16.14 -3.39,14.93 -3.34,13.80 -3.29,12.67 -3.23,11.33 -3.18,9.99 -3.10,8.69 -3.03,7.39 -2.94,6.07 -2.85,4.75 -2.75,3.43 -2.65,2.10 -2.62,1.05 -2.59,0.00 -2.56,-0.30 -2.52,-0.61 -2.41,-0.91 -2.30,-1.20 -2.12,-1.46 -1.94,-1.72 -1.71,-1.93 -1.47,-2.13 -1.20,-2.28 -0.92,-2.42 -0.61,-2.50 -0.31,-2.58 -0.00,-2.58 0.31,-2.58 0.61,-2.50 0.91,-2.43 1.19,-2.28 1.47,-2.14 1.70,-1.93 1.94,-1.72 2.12,-1.46 2.30,-1.20 2.41,-0.91 2.52,-0.62 2.56,-0.31 2.59,-0.00 2.59,-0.00 L 2.59,-0.00 Z"></path></g><g transform="translate(266.68420796731357 149.1433474867039) rotate(0 -3.69278353157668 8.518539489994623)" stroke="none"><path fill="#e03131" d="M 1.70,1.88 Q 1.70,1.88 1.09,2.49 0.48,3.10 -0.40,4.10 -1.28,5.11 -2.17,6.08 -3.05,7.06 -3.61,8.01 -4.18,8.97 -4.06,10.19 -3.93,11.40 -3.89,12.60 -3.85,13.80 -3.63,14.90 -3.42,16.01 -3.34,16.57 -3.27,17.14 -3.38,17.71 -3.49,18.27 -3.77,18.77 -4.06,19.27 -4.48,19.65 -4.91,20.03 -5.44,20.25 -5.97,20.48 -6.54,20.52 -7.11,20.57 -7.67,20.43 -8.22,20.29 -8.71,19.98 -9.19,19.67 -9.55,19.22 -9.90,18.77 -10.10,18.23 -10.30,17.69 -10.31,17.12 -10.32,16.55 -10.15,16.00 -9.98,15.45 -9.65,14.98 -9.31,14.52 -8.84,14.19 -8.38,13.85 -7.83,13.69 -7.28,13.52 -6.71,13.54 -6.13,13.56 -5.59,13.75 -5.06,13.95 -4.61,14.32 -4.17,14.68 -3.86,15.16 -3.55,15.65 -3.41,16.20 -3.28,16.76 -3.33,17.33 -3.37,17.90 -3.60,18.43 -3.83,18.96 -4.22,19.38 -4.60,19.81 -5.10,20.09 -5.60,20.37 -6.16,20.47 -6.73,20.58 -7.30,20.50 -7.86,20.42 -8.38,20.16 -8.89,19.91 -9.30,19.50 -9.70,19.09 -9.95,18.58 -10.21,18.06 -10.21,18.06 -10.21,18.07 -10.55,15.80 -10.90,13.53 -10.86,12.47 -10.83,11.40 -10.77,10.27 -10.71,9.14 -10.39,7.82 -10.08,6.50 -9.28,5.24 -8.49,3.98 -7.72,3.21 -6.96,2.44 -5.93,1.60 -4.91,0.76 -3.97,-0.02 -3.03,-0.80 -2.37,-1.34 -1.70,-1.88 -1.45,-2.06 -1.20,-2.24 -0.91,-2.35 -0.62,-2.46 -0.32,-2.50 -0.02,-2.54 0.28,-2.50 0.58,-2.47 0.87,-2.36 1.16,-2.26 1.41,-2.09 1.67,-1.91 1.87,-1.69 2.08,-1.46 2.22,-1.19 2.37,-0.92 2.44,-0.62 2.52,-0.32 2.52,-0.02 2.52,0.28 2.45,0.58 2.38,0.88 2.24,1.15 2.10,1.42 1.90,1.65 1.70,1.88 1.70,1.88 L 1.70,1.88 Z"></path></g><g transform="translate(262.0086427569743 170.33360293822628) rotate(0 6.2803455416431575 4.731077649459991)" stroke="none"><path fill="#1971c2" d="M 2.15,-1.10 Q 2.15,-1.10 2.43,-0.67 2.70,-0.23 3.45,0.71 4.21,1.66 5.14,2.29 6.08,2.92 7.06,3.39 8.05,3.87 9.21,4.43 10.36,4.99 11.49,5.50 12.62,6.01 13.17,6.11 13.72,6.21 14.21,6.48 14.70,6.75 15.07,7.17 15.45,7.58 15.67,8.09 15.90,8.60 15.94,9.16 15.99,9.71 15.86,10.26 15.73,10.80 15.44,11.27 15.14,11.74 14.71,12.09 14.27,12.45 13.75,12.64 13.23,12.84 12.67,12.86 12.11,12.88 11.58,12.72 11.05,12.56 10.59,12.23 10.13,11.91 9.81,11.46 9.48,11.01 9.31,10.48 9.14,9.95 9.15,9.39 9.17,8.83 9.35,8.31 9.54,7.78 9.89,7.34 10.24,6.91 10.70,6.60 11.17,6.30 11.71,6.16 12.25,6.02 12.81,6.06 13.36,6.11 13.88,6.32 14.39,6.54 14.81,6.91 15.23,7.28 15.51,7.76 15.78,8.25 15.89,8.79 16.00,9.34 15.93,9.89 15.86,10.45 15.61,10.95 15.37,11.45 14.98,11.85 14.59,12.24 14.09,12.49 13.59,12.75 13.04,12.83 12.49,12.90 12.49,12.90 12.49,12.90 9.59,11.77 6.68,10.64 5.76,10.06 4.84,9.48 3.52,8.66 2.20,7.84 1.38,6.90 0.57,5.96 -0.18,5.06 -0.95,4.16 -1.36,3.10 -1.78,2.05 -1.96,1.57 -2.15,1.10 -2.25,0.82 -2.35,0.55 -2.39,0.26 -2.42,-0.02 -2.38,-0.31 -2.34,-0.60 -2.24,-0.87 -2.13,-1.14 -1.96,-1.38 -1.79,-1.62 -1.57,-1.81 -1.35,-2.00 -1.09,-2.14 -0.83,-2.27 -0.55,-2.34 -0.26,-2.40 0.02,-2.40 0.31,-2.40 0.60,-2.32 0.88,-2.25 1.14,-2.11 1.39,-1.97 1.61,-1.78 1.83,-1.58 1.99,-1.34 2.15,-1.10 2.15,-1.10 L 2.15,-1.10 Z"></path></g><g transform="translate(293.8724094677397 151.8663835231164) rotate(0 2.148404730336523 6.521962290356868)" stroke="none"><path fill="#e03131" d="M 2.50,-0.38 Q 2.50,-0.38 2.68,0.48 2.86,1.35 3.30,2.34 3.73,3.34 4.11,4.42 4.48,5.51 5.01,6.58 5.53,7.64 6.49,9.94 7.45,12.23 7.50,12.75 7.54,13.28 7.42,13.79 7.30,14.30 7.02,14.75 6.74,15.20 6.33,15.53 5.92,15.86 5.43,16.05 4.93,16.24 4.40,16.25 3.88,16.27 3.37,16.12 2.87,15.97 2.44,15.67 2.00,15.36 1.69,14.94 1.38,14.51 1.22,14.01 1.06,13.50 1.07,12.98 1.08,12.45 1.26,11.95 1.44,11.46 1.77,11.04 2.10,10.63 2.54,10.34 2.98,10.05 3.49,9.92 4.00,9.79 4.53,9.83 5.05,9.87 5.54,10.07 6.03,10.28 6.42,10.63 6.82,10.98 7.08,11.43 7.34,11.89 7.45,12.41 7.55,12.93 7.48,13.45 7.42,13.97 7.19,14.45 6.95,14.92 6.58,15.30 6.21,15.67 5.74,15.91 5.27,16.15 4.75,16.22 4.23,16.30 3.71,16.20 3.19,16.11 2.73,15.85 2.27,15.60 1.91,15.21 1.56,14.82 1.35,14.33 1.13,13.85 1.13,13.85 1.13,13.85 0.20,11.58 -0.72,9.31 -0.95,8.16 -1.18,7.02 -1.44,5.88 -1.71,4.75 -2.01,3.45 -2.32,2.16 -2.41,1.27 -2.50,0.38 -2.51,0.08 -2.52,-0.22 -2.46,-0.52 -2.40,-0.82 -2.26,-1.09 -2.13,-1.37 -1.93,-1.60 -1.74,-1.84 -1.49,-2.02 -1.25,-2.20 -0.96,-2.32 -0.68,-2.44 -0.38,-2.49 -0.08,-2.53 0.22,-2.51 0.52,-2.48 0.81,-2.38 1.10,-2.28 1.36,-2.11 1.62,-1.95 1.83,-1.73 2.04,-1.50 2.19,-1.24 2.34,-0.97 2.42,-0.68 2.50,-0.38 2.50,-0.38 L 2.50,-0.38 Z"></path></g><g transform="translate(300.04990341578315 168.81858363295092) rotate(0 1.4398904250203657 3.740133314514253)" stroke="none"><path fill="#1971c2" d="M 2.43,-0.71 Q 2.43,-0.71 2.70,0.03 2.97,0.78 3.45,1.78 3.93,2.78 4.50,4.17 5.07,5.57 5.32,5.97 5.57,6.37 5.67,6.83 5.78,7.28 5.73,7.75 5.69,8.22 5.49,8.65 5.30,9.08 4.98,9.43 4.66,9.77 4.25,10.00 3.84,10.22 3.37,10.30 2.91,10.39 2.44,10.31 1.98,10.24 1.56,10.03 1.14,9.81 0.81,9.47 0.48,9.14 0.28,8.71 0.08,8.29 0.02,7.82 -0.02,7.35 0.06,6.89 0.16,6.43 0.40,6.02 0.64,5.62 0.99,5.31 1.35,5.00 1.78,4.82 2.22,4.64 2.69,4.61 3.16,4.58 3.61,4.70 4.07,4.82 4.46,5.08 4.85,5.34 5.14,5.71 5.43,6.08 5.59,6.53 5.74,6.97 5.75,7.44 5.75,7.91 5.61,8.36 5.46,8.81 5.18,9.19 4.90,9.57 4.51,9.83 4.13,10.10 3.67,10.23 3.22,10.36 2.75,10.34 2.28,10.32 1.84,10.16 1.40,9.99 1.04,9.68 0.68,9.38 0.68,9.38 0.68,9.38 -0.33,7.07 -1.35,4.75 -1.70,3.51 -2.06,2.28 -2.24,1.50 -2.43,0.71 -2.48,0.41 -2.53,0.11 -2.50,-0.18 -2.48,-0.49 -2.39,-0.78 -2.29,-1.07 -2.13,-1.33 -1.97,-1.59 -1.75,-1.80 -1.53,-2.01 -1.27,-2.17 -1.00,-2.32 -0.71,-2.41 -0.42,-2.49 -0.11,-2.51 0.18,-2.52 0.48,-2.46 0.78,-2.40 1.06,-2.27 1.34,-2.14 1.58,-1.95 1.81,-1.76 2.00,-1.52 2.18,-1.27 2.30,-0.99 2.43,-0.71 2.43,-0.71 L 2.43,-0.71 Z"></path></g><g stroke-linecap="round"><g transform="translate(226.63495784133193 16.163833639744553) rotate(0 0 177.52146261437895)"><path d="M0 0 C0 59.17, 0 295.87, 0 355.04" stroke="#1e1e1e" stroke-width="1.5" fill="none" stroke-dasharray="8 9"></path></g></g><mask></mask><g stroke-linecap="round"><g transform="translate(319.7196101588741 10) rotate(0 0 177.52146261437895)"><path d="M0 0 C0 59.17, 0 295.87, 0 355.04" stroke="#1e1e1e" stroke-width="1.5" fill="none" stroke-dasharray="8 9"></path></g></g><mask></mask><g stroke-linecap="round" transform="translate(10 167.85701952255587) rotate(0 41.90668653162007 38.28057929819457)"><path d="M83.81 38.28 C83.81 40.1, 83.67 41.93, 83.39 43.73 C83.1 45.53, 82.68 47.32, 82.12 49.07 C81.56 50.81, 80.85 52.53, 80.03 54.18 C79.2 55.83, 78.24 57.45, 77.16 58.98 C76.09 60.5, 74.88 61.98, 73.58 63.35 C72.28 64.72, 70.85 66.02, 69.35 67.21 C67.85 68.4, 66.24 69.5, 64.56 70.48 C62.89 71.47, 61.12 72.35, 59.32 73.1 C57.51 73.86, 55.62 74.5, 53.71 75.01 C51.81 75.52, 49.84 75.91, 47.87 76.17 C45.9 76.43, 43.89 76.56, 41.91 76.56 C39.92 76.56, 37.91 76.43, 35.94 76.17 C33.97 75.91, 32.01 75.52, 30.1 75.01 C28.19 74.5, 26.31 73.86, 24.5 73.1 C22.69 72.35, 20.92 71.47, 19.25 70.48 C17.58 69.5, 15.97 68.4, 14.46 67.21 C12.96 66.02, 11.54 64.72, 10.24 63.35 C8.93 61.98, 7.73 60.5, 6.65 58.98 C5.58 57.45, 4.61 55.83, 3.79 54.18 C2.96 52.53, 2.26 50.81, 1.7 49.07 C1.14 47.32, 0.71 45.53, 0.43 43.73 C0.14 41.93, 0 40.1, 0 38.28 C0 36.46, 0.14 34.63, 0.43 32.83 C0.71 31.04, 1.14 29.24, 1.7 27.5 C2.26 25.75, 2.96 24.03, 3.79 22.38 C4.61 20.73, 5.58 19.11, 6.65 17.58 C7.73 16.06, 8.93 14.58, 10.24 13.21 C11.54 11.84, 12.96 10.54, 14.46 9.35 C15.97 8.16, 17.58 7.06, 19.25 6.08 C20.92 5.1, 22.69 4.21, 24.5 3.46 C26.31 2.7, 28.19 2.06, 30.1 1.55 C32.01 1.04, 33.97 0.65, 35.94 0.39 C37.91 0.13, 39.92 0, 41.91 0 C43.89 0, 45.9 0.13, 47.87 0.39 C49.84 0.65, 51.81 1.04, 53.71 1.55 C55.62 2.06, 57.51 2.7, 59.32 3.46 C61.12 4.21, 62.89 5.1, 64.56 6.08 C66.24 7.06, 67.85 8.16, 69.35 9.35 C70.85 10.54, 72.28 11.84, 73.58 13.21 C74.88 14.58, 76.09 16.06, 77.16 17.58 C78.24 19.11, 79.2 20.73, 80.03 22.38 C80.85 24.03, 81.56 25.75, 82.12 27.5 C82.68 29.24, 83.1 31.04, 83.39 32.83 C83.67 34.63, 83.74 37.37, 83.81 38.28 C83.88 39.19, 83.88 37.37, 83.81 38.28" stroke="#1e1e1e" stroke-width="2" fill="none"></path></g><g transform="translate(43.33105816784172 177.4873304846336) rotate(0 -1.666808015529213 11.226925817105865)" stroke="none"><path fill="#e03131" d="M -0.00,2.60 Q -0.00,2.60 -0.84,2.64 -1.68,2.68 -2.94,2.99 -4.20,3.29 -5.26,3.94 -6.31,4.59 -6.43,6.12 -6.54,7.66 -6.76,8.78 -6.98,9.91 -6.92,11.13 -6.87,12.35 -6.69,13.54 -6.51,14.72 -5.89,15.62 -5.28,16.53 -3.69,17.12 -2.11,17.71 -0.98,17.96 0.14,18.22 1.32,18.17 2.50,18.12 5.24,18.41 7.97,18.70 8.55,18.95 9.12,19.20 9.58,19.62 10.04,20.03 10.34,20.57 10.65,21.12 10.76,21.73 10.88,22.34 10.79,22.96 10.71,23.57 10.43,24.13 10.15,24.68 9.71,25.12 9.27,25.56 8.71,25.84 8.15,26.11 7.54,26.19 6.92,26.28 6.31,26.16 5.70,26.04 5.16,25.73 4.62,25.42 4.20,24.96 3.79,24.49 3.54,23.92 3.30,23.35 3.25,22.73 3.20,22.11 3.36,21.50 3.51,20.90 3.84,20.38 4.18,19.85 4.67,19.47 5.15,19.08 5.74,18.87 6.32,18.65 6.94,18.64 7.57,18.62 8.16,18.81 8.75,18.99 9.26,19.36 9.76,19.72 10.12,20.23 10.49,20.73 10.67,21.33 10.85,21.93 10.83,22.55 10.81,23.17 10.59,23.75 10.38,24.34 9.98,24.82 9.59,25.30 9.07,25.64 8.54,25.97 7.94,26.12 7.33,26.27 6.71,26.21 6.09,26.16 6.09,26.16 6.10,26.16 4.72,25.98 3.35,25.80 2.27,25.79 1.19,25.78 0.06,25.73 -1.06,25.69 -2.37,25.36 -3.67,25.03 -4.71,24.61 -5.75,24.20 -6.90,23.64 -8.05,23.08 -9.14,22.42 -10.23,21.76 -11.10,20.80 -11.97,19.85 -12.61,18.72 -13.25,17.60 -13.59,16.56 -13.93,15.53 -13.99,14.27 -14.05,13.02 -14.02,11.91 -13.99,10.80 -13.90,9.72 -13.81,8.63 -13.57,7.57 -13.32,6.51 -13.08,5.39 -12.83,4.28 -12.51,3.19 -12.20,2.11 -11.51,1.18 -10.81,0.26 -9.91,-0.39 -9.00,-1.05 -7.69,-1.63 -6.39,-2.22 -5.10,-2.47 -3.82,-2.72 -2.75,-2.70 -1.67,-2.68 -0.83,-2.64 0.00,-2.60 0.31,-2.56 0.62,-2.52 0.91,-2.41 1.21,-2.30 1.46,-2.12 1.72,-1.94 1.93,-1.70 2.14,-1.47 2.28,-1.19 2.43,-0.91 2.50,-0.61 2.58,-0.31 2.58,0.00 2.58,0.31 2.50,0.62 2.43,0.92 2.28,1.20 2.13,1.47 1.93,1.71 1.72,1.94 1.46,2.12 1.20,2.30 0.91,2.41 0.61,2.52 0.30,2.56 -0.00,2.60 -0.00,2.60 L -0.00,2.60 Z"></path></g><g transform="translate(61.1746245842624 174.5455006934504) rotate(0 1.2750111471953716 14.232409446675746)" stroke="none"><path fill="#e03131" d="M 2.54,-0.00 Q 2.54,-0.00 2.58,0.90 2.63,1.81 2.72,2.95 2.81,4.09 2.90,5.22 3.00,6.36 3.08,7.96 3.15,9.57 3.23,10.64 3.30,11.71 3.53,13.16 3.77,14.61 4.00,16.07 4.23,17.52 4.41,18.66 4.58,19.80 4.82,21.23 5.05,22.65 5.42,24.88 5.79,27.10 5.91,27.66 6.03,28.21 5.96,28.78 5.90,29.34 5.66,29.86 5.41,30.37 5.02,30.78 4.63,31.19 4.12,31.46 3.62,31.72 3.05,31.81 2.49,31.90 1.93,31.80 1.37,31.71 0.87,31.44 0.37,31.17 -0.01,30.75 -0.40,30.34 -0.63,29.82 -0.87,29.30 -0.93,28.73 -0.99,28.17 -0.86,27.61 -0.73,27.06 -0.44,26.57 -0.14,26.09 0.28,25.72 0.72,25.36 1.25,25.15 1.78,24.94 2.35,24.91 2.92,24.89 3.46,25.04 4.01,25.20 4.48,25.52 4.95,25.84 5.29,26.30 5.63,26.75 5.81,27.29 5.99,27.83 5.99,28.40 5.98,28.97 5.80,29.51 5.61,30.05 5.26,30.50 4.92,30.95 4.44,31.27 3.97,31.58 3.42,31.73 2.87,31.88 2.30,31.85 1.74,31.81 1.21,31.60 0.68,31.38 0.25,31.01 -0.17,30.64 -0.46,30.15 -0.75,29.66 -0.75,29.66 -0.75,29.66 -1.09,27.66 -1.43,25.66 -1.62,24.35 -1.81,23.03 -2.05,21.44 -2.30,19.85 -2.44,18.74 -2.58,17.63 -2.74,16.08 -2.89,14.52 -3.00,13.36 -3.11,12.19 -3.13,10.88 -3.15,9.57 -3.07,7.96 -2.99,6.36 -2.90,5.23 -2.81,4.09 -2.72,2.95 -2.62,1.81 -2.58,0.91 -2.54,0.00 -2.51,-0.30 -2.47,-0.60 -2.36,-0.89 -2.25,-1.18 -2.08,-1.43 -1.90,-1.68 -1.67,-1.89 -1.44,-2.09 -1.17,-2.23 -0.90,-2.38 -0.60,-2.45 -0.30,-2.52 -0.00,-2.52 0.30,-2.52 0.60,-2.45 0.90,-2.38 1.17,-2.24 1.44,-2.09 1.67,-1.89 1.90,-1.69 2.07,-1.43 2.25,-1.18 2.36,-0.89 2.47,-0.61 2.50,-0.30 2.54,-0.00 2.54,-0.00 L 2.54,-0.00 Z"></path></g><g transform="translate(47.87927318757313 209.67759416275297) rotate(0 -2.4651221673188672 12.123181214635053)" stroke="none"><path fill="#1971c2" d="M 0.12,2.52 Q 0.12,2.52 -0.73,2.61 -1.60,2.69 -2.47,3.40 -3.35,4.11 -3.96,5.05 -4.56,6.00 -4.88,7.12 -5.21,8.24 -5.50,9.77 -5.80,11.31 -5.57,12.48 -5.34,13.65 -4.30,14.28 -3.27,14.90 -2.49,15.87 -1.71,16.83 -0.76,17.43 0.18,18.03 1.54,18.84 2.90,19.66 4.08,20.18 5.27,20.69 5.80,21.00 6.32,21.31 6.72,21.78 7.12,22.24 7.35,22.81 7.59,23.38 7.62,23.99 7.66,24.60 7.50,25.19 7.34,25.78 7.00,26.29 6.66,26.80 6.18,27.18 5.70,27.55 5.12,27.75 4.54,27.95 3.93,27.95 3.31,27.96 2.73,27.77 2.15,27.58 1.66,27.21 1.17,26.84 0.82,26.34 0.47,25.84 0.30,25.25 0.14,24.66 0.16,24.05 0.19,23.43 0.41,22.86 0.64,22.29 1.03,21.82 1.42,21.35 1.94,21.03 2.47,20.71 3.06,20.58 3.66,20.44 4.27,20.50 4.88,20.56 5.44,20.82 6.00,21.07 6.44,21.49 6.89,21.91 7.18,22.44 7.47,22.98 7.58,23.59 7.68,24.19 7.59,24.80 7.49,25.40 7.21,25.94 6.93,26.49 6.49,26.91 6.04,27.34 5.49,27.60 4.94,27.86 4.33,27.93 3.72,28.00 3.12,27.87 2.52,27.75 2.52,27.75 2.52,27.75 0.88,26.97 -0.76,26.20 -2.01,25.45 -3.26,24.71 -4.21,24.06 -5.16,23.41 -6.09,22.59 -7.01,21.78 -7.87,20.65 -8.73,19.53 -9.79,18.56 -10.86,17.60 -11.49,16.55 -12.12,15.51 -12.28,14.14 -12.43,12.77 -12.39,11.57 -12.34,10.37 -12.12,9.15 -11.90,7.94 -11.62,6.51 -11.33,5.08 -10.82,4.02 -10.31,2.95 -9.40,1.94 -8.49,0.92 -7.63,0.17 -6.78,-0.57 -5.61,-1.29 -4.44,-2.00 -3.16,-2.26 -1.88,-2.52 -1.00,-2.52 -0.12,-2.52 0.17,-2.50 0.48,-2.48 0.77,-2.38 1.06,-2.29 1.32,-2.13 1.57,-1.97 1.79,-1.75 2.00,-1.53 2.16,-1.27 2.31,-1.01 2.40,-0.71 2.49,-0.42 2.50,-0.12 2.52,0.18 2.46,0.47 2.40,0.77 2.27,1.05 2.14,1.33 1.95,1.56 1.76,1.80 1.52,1.99 1.28,2.17 1.00,2.29 0.72,2.42 0.42,2.47 0.12,2.52 0.12,2.52 L 0.12,2.52 Z"></path></g><g transform="translate(64.91641593831383 214.0821336795103) rotate(0 0.12896571631071652 10.191894636004093)" stroke="none"><path fill="#1971c2" d="M 2.59,-0.00 Q 2.59,-0.00 2.63,1.05 2.66,2.10 2.76,3.42 2.86,4.75 2.95,6.07 3.04,7.39 3.11,8.69 3.18,9.99 3.24,11.33 3.30,12.67 3.35,13.80 3.39,14.93 3.56,17.61 3.73,20.30 3.64,20.85 3.55,21.41 3.29,21.91 3.03,22.40 2.62,22.79 2.21,23.18 1.70,23.42 1.19,23.65 0.63,23.71 0.07,23.78 -0.47,23.66 -1.02,23.53 -1.50,23.24 -1.99,22.96 -2.35,22.53 -2.72,22.10 -2.93,21.57 -3.14,21.05 -3.17,20.49 -3.20,19.93 -3.05,19.38 -2.90,18.84 -2.58,18.38 -2.27,17.91 -1.82,17.57 -1.37,17.23 -0.84,17.05 -0.30,16.87 0.25,16.87 0.81,16.87 1.35,17.04 1.88,17.22 2.33,17.56 2.78,17.90 3.09,18.37 3.41,18.84 3.56,19.38 3.71,19.92 3.68,20.48 3.65,21.05 3.44,21.57 3.24,22.09 2.87,22.52 2.51,22.95 2.03,23.24 1.54,23.53 0.99,23.65 0.44,23.78 -0.11,23.71 -0.67,23.65 -1.18,23.42 -1.69,23.18 -2.10,22.80 -2.51,22.41 -2.77,21.91 -3.03,21.41 -3.13,20.86 -3.22,20.30 -3.22,20.30 -3.22,20.30 -3.30,17.62 -3.39,14.93 -3.34,13.80 -3.29,12.67 -3.23,11.33 -3.18,9.99 -3.10,8.69 -3.03,7.39 -2.94,6.07 -2.85,4.75 -2.75,3.43 -2.65,2.10 -2.62,1.05 -2.59,0.00 -2.56,-0.30 -2.52,-0.61 -2.41,-0.91 -2.30,-1.20 -2.12,-1.46 -1.94,-1.72 -1.71,-1.93 -1.47,-2.13 -1.20,-2.28 -0.92,-2.42 -0.61,-2.50 -0.31,-2.58 -0.00,-2.58 0.31,-2.58 0.61,-2.50 0.91,-2.43 1.19,-2.28 1.47,-2.14 1.70,-1.93 1.94,-1.72 2.12,-1.46 2.30,-1.20 2.41,-0.91 2.52,-0.62 2.56,-0.31 2.59,-0.00 2.59,-0.00 L 2.59,-0.00 Z"></path></g><g stroke-linecap="round"><g transform="translate(101.38718402523912 11.390322042148995) rotate(0 0 177.0414989024461)"><path d="M0 0 C0 59.01, 0 295.07, 0 354.08" stroke="#1e1e1e" stroke-width="1.5" fill="none" stroke-dasharray="8 9"></path></g></g><mask></mask><g transform="translate(136.67571383396697 174.65818736221357) rotate(181.04457122026255 -1.666808015529213 11.226925817105865)" stroke="none"><path fill="#e03131" d="M -0.00,2.60 Q -0.00,2.60 -0.84,2.64 -1.68,2.68 -2.94,2.99 -4.20,3.29 -5.26,3.94 -6.31,4.59 -6.43,6.12 -6.54,7.66 -6.76,8.78 -6.98,9.91 -6.92,11.13 -6.87,12.35 -6.69,13.54 -6.51,14.72 -5.89,15.62 -5.28,16.53 -3.69,17.12 -2.11,17.71 -0.98,17.96 0.14,18.22 1.32,18.17 2.50,18.12 5.24,18.41 7.97,18.70 8.55,18.95 9.12,19.20 9.58,19.62 10.04,20.03 10.34,20.57 10.65,21.12 10.76,21.73 10.88,22.34 10.79,22.96 10.71,23.57 10.43,24.13 10.15,24.68 9.71,25.12 9.27,25.56 8.71,25.84 8.15,26.11 7.54,26.19 6.92,26.28 6.31,26.16 5.70,26.04 5.16,25.73 4.62,25.42 4.20,24.96 3.79,24.49 3.54,23.92 3.30,23.35 3.25,22.73 3.20,22.11 3.36,21.50 3.51,20.90 3.84,20.38 4.18,19.85 4.67,19.47 5.15,19.08 5.74,18.87 6.32,18.65 6.94,18.64 7.57,18.62 8.16,18.81 8.75,18.99 9.26,19.36 9.76,19.72 10.12,20.23 10.49,20.73 10.67,21.33 10.85,21.93 10.83,22.55 10.81,23.17 10.59,23.75 10.38,24.34 9.98,24.82 9.59,25.30 9.07,25.64 8.54,25.97 7.94,26.12 7.33,26.27 6.71,26.21 6.09,26.16 6.09,26.16 6.10,26.16 4.72,25.98 3.35,25.80 2.27,25.79 1.19,25.78 0.06,25.73 -1.06,25.69 -2.37,25.36 -3.67,25.03 -4.71,24.61 -5.75,24.20 -6.90,23.64 -8.05,23.08 -9.14,22.42 -10.23,21.76 -11.10,20.80 -11.97,19.85 -12.61,18.72 -13.25,17.60 -13.59,16.56 -13.93,15.53 -13.99,14.27 -14.05,13.02 -14.02,11.91 -13.99,10.80 -13.90,9.72 -13.81,8.63 -13.57,7.57 -13.32,6.51 -13.08,5.39 -12.83,4.28 -12.51,3.19 -12.20,2.11 -11.51,1.18 -10.81,0.26 -9.91,-0.39 -9.00,-1.05 -7.69,-1.63 -6.39,-2.22 -5.10,-2.47 -3.82,-2.72 -2.75,-2.70 -1.67,-2.68 -0.83,-2.64 0.00,-2.60 0.31,-2.56 0.62,-2.52 0.91,-2.41 1.21,-2.30 1.46,-2.12 1.72,-1.94 1.93,-1.70 2.14,-1.47 2.28,-1.19 2.43,-0.91 2.50,-0.61 2.58,-0.31 2.58,0.00 2.58,0.31 2.50,0.62 2.43,0.92 2.28,1.20 2.13,1.47 1.93,1.71 1.72,1.94 1.46,2.12 1.20,2.30 0.91,2.41 0.61,2.52 0.30,2.56 -0.00,2.60 -0.00,2.60 L -0.00,2.60 Z"></path></g><g transform="translate(180.9697314941207 169.6284076321771) rotate(181.04457122026255 1.2750111471953716 14.232409446675746)" stroke="none"><path fill="#e03131" d="M 2.54,-0.00 Q 2.54,-0.00 2.58,0.90 2.63,1.81 2.72,2.95 2.81,4.09 2.90,5.22 3.00,6.36 3.08,7.96 3.15,9.57 3.23,10.64 3.30,11.71 3.53,13.16 3.77,14.61 4.00,16.07 4.23,17.52 4.41,18.66 4.58,19.80 4.82,21.23 5.05,22.65 5.42,24.88 5.79,27.10 5.91,27.66 6.03,28.21 5.96,28.78 5.90,29.34 5.66,29.86 5.41,30.37 5.02,30.78 4.63,31.19 4.12,31.46 3.62,31.72 3.05,31.81 2.49,31.90 1.93,31.80 1.37,31.71 0.87,31.44 0.37,31.17 -0.01,30.75 -0.40,30.34 -0.63,29.82 -0.87,29.30 -0.93,28.73 -0.99,28.17 -0.86,27.61 -0.73,27.06 -0.44,26.57 -0.14,26.09 0.28,25.72 0.72,25.36 1.25,25.15 1.78,24.94 2.35,24.91 2.92,24.89 3.46,25.04 4.01,25.20 4.48,25.52 4.95,25.84 5.29,26.30 5.63,26.75 5.81,27.29 5.99,27.83 5.99,28.40 5.98,28.97 5.80,29.51 5.61,30.05 5.26,30.50 4.92,30.95 4.44,31.27 3.97,31.58 3.42,31.73 2.87,31.88 2.30,31.85 1.74,31.81 1.21,31.60 0.68,31.38 0.25,31.01 -0.17,30.64 -0.46,30.15 -0.75,29.66 -0.75,29.66 -0.75,29.66 -1.09,27.66 -1.43,25.66 -1.62,24.35 -1.81,23.03 -2.05,21.44 -2.30,19.85 -2.44,18.74 -2.58,17.63 -2.74,16.08 -2.89,14.52 -3.00,13.36 -3.11,12.19 -3.13,10.88 -3.15,9.57 -3.07,7.96 -2.99,6.36 -2.90,5.23 -2.81,4.09 -2.72,2.95 -2.62,1.81 -2.58,0.91 -2.54,0.00 -2.51,-0.30 -2.47,-0.60 -2.36,-0.89 -2.25,-1.18 -2.08,-1.43 -1.90,-1.68 -1.67,-1.89 -1.44,-2.09 -1.17,-2.23 -0.90,-2.38 -0.60,-2.45 -0.30,-2.52 -0.00,-2.52 0.30,-2.52 0.60,-2.45 0.90,-2.38 1.17,-2.24 1.44,-2.09 1.67,-1.89 1.90,-1.69 2.07,-1.43 2.25,-1.18 2.36,-0.89 2.47,-0.61 2.50,-0.30 2.54,-0.00 2.54,-0.00 L 2.54,-0.00 Z"></path></g><g transform="translate(143.8635211181384 209.2174876174664) rotate(181.04457122026255 -2.4651221673188672 12.123181214635053)" stroke="none"><path fill="#1971c2" d="M 0.12,2.52 Q 0.12,2.52 -0.73,2.61 -1.60,2.69 -2.47,3.40 -3.35,4.11 -3.96,5.05 -4.56,6.00 -4.88,7.12 -5.21,8.24 -5.50,9.77 -5.80,11.31 -5.57,12.48 -5.34,13.65 -4.30,14.28 -3.27,14.90 -2.49,15.87 -1.71,16.83 -0.76,17.43 0.18,18.03 1.54,18.84 2.90,19.66 4.08,20.18 5.27,20.69 5.80,21.00 6.32,21.31 6.72,21.78 7.12,22.24 7.35,22.81 7.59,23.38 7.62,23.99 7.66,24.60 7.50,25.19 7.34,25.78 7.00,26.29 6.66,26.80 6.18,27.18 5.70,27.55 5.12,27.75 4.54,27.95 3.93,27.95 3.31,27.96 2.73,27.77 2.15,27.58 1.66,27.21 1.17,26.84 0.82,26.34 0.47,25.84 0.30,25.25 0.14,24.66 0.16,24.05 0.19,23.43 0.41,22.86 0.64,22.29 1.03,21.82 1.42,21.35 1.94,21.03 2.47,20.71 3.06,20.58 3.66,20.44 4.27,20.50 4.88,20.56 5.44,20.82 6.00,21.07 6.44,21.49 6.89,21.91 7.18,22.44 7.47,22.98 7.58,23.59 7.68,24.19 7.59,24.80 7.49,25.40 7.21,25.94 6.93,26.49 6.49,26.91 6.04,27.34 5.49,27.60 4.94,27.86 4.33,27.93 3.72,28.00 3.12,27.87 2.52,27.75 2.52,27.75 2.52,27.75 0.88,26.97 -0.76,26.20 -2.01,25.45 -3.26,24.71 -4.21,24.06 -5.16,23.41 -6.09,22.59 -7.01,21.78 -7.87,20.65 -8.73,19.53 -9.79,18.56 -10.86,17.60 -11.49,16.55 -12.12,15.51 -12.28,14.14 -12.43,12.77 -12.39,11.57 -12.34,10.37 -12.12,9.15 -11.90,7.94 -11.62,6.51 -11.33,5.08 -10.82,4.02 -10.31,2.95 -9.40,1.94 -8.49,0.92 -7.63,0.17 -6.78,-0.57 -5.61,-1.29 -4.44,-2.00 -3.16,-2.26 -1.88,-2.52 -1.00,-2.52 -0.12,-2.52 0.17,-2.50 0.48,-2.48 0.77,-2.38 1.06,-2.29 1.32,-2.13 1.57,-1.97 1.79,-1.75 2.00,-1.53 2.16,-1.27 2.31,-1.01 2.40,-0.71 2.49,-0.42 2.50,-0.12 2.52,0.18 2.46,0.47 2.40,0.77 2.27,1.05 2.14,1.33 1.95,1.56 1.76,1.80 1.52,1.99 1.28,2.17 1.00,2.29 0.72,2.42 0.42,2.47 0.12,2.52 0.12,2.52 L 0.12,2.52 Z"></path></g><g transform="translate(184.60742040403204 212.56430101007075) rotate(181.04457122026255 0.12896571631071652 10.191894636004093)" stroke="none"><path fill="#1971c2" d="M 2.59,-0.00 Q 2.59,-0.00 2.63,1.05 2.66,2.10 2.76,3.42 2.86,4.75 2.95,6.07 3.04,7.39 3.11,8.69 3.18,9.99 3.24,11.33 3.30,12.67 3.35,13.80 3.39,14.93 3.56,17.61 3.73,20.30 3.64,20.85 3.55,21.41 3.29,21.91 3.03,22.40 2.62,22.79 2.21,23.18 1.70,23.42 1.19,23.65 0.63,23.71 0.07,23.78 -0.47,23.66 -1.02,23.53 -1.50,23.24 -1.99,22.96 -2.35,22.53 -2.72,22.10 -2.93,21.57 -3.14,21.05 -3.17,20.49 -3.20,19.93 -3.05,19.38 -2.90,18.84 -2.58,18.38 -2.27,17.91 -1.82,17.57 -1.37,17.23 -0.84,17.05 -0.30,16.87 0.25,16.87 0.81,16.87 1.35,17.04 1.88,17.22 2.33,17.56 2.78,17.90 3.09,18.37 3.41,18.84 3.56,19.38 3.71,19.92 3.68,20.48 3.65,21.05 3.44,21.57 3.24,22.09 2.87,22.52 2.51,22.95 2.03,23.24 1.54,23.53 0.99,23.65 0.44,23.78 -0.11,23.71 -0.67,23.65 -1.18,23.42 -1.69,23.18 -2.10,22.80 -2.51,22.41 -2.77,21.91 -3.03,21.41 -3.13,20.86 -3.22,20.30 -3.22,20.30 -3.22,20.30 -3.30,17.62 -3.39,14.93 -3.34,13.80 -3.29,12.67 -3.23,11.33 -3.18,9.99 -3.10,8.69 -3.03,7.39 -2.94,6.07 -2.85,4.75 -2.75,3.43 -2.65,2.10 -2.62,1.05 -2.59,0.00 -2.56,-0.30 -2.52,-0.61 -2.41,-0.91 -2.30,-1.20 -2.12,-1.46 -1.94,-1.72 -1.71,-1.93 -1.47,-2.13 -1.20,-2.28 -0.92,-2.42 -0.61,-2.50 -0.31,-2.58 -0.00,-2.58 0.31,-2.58 0.61,-2.50 0.91,-2.43 1.19,-2.28 1.47,-2.14 1.70,-1.93 1.94,-1.72 2.12,-1.46 2.30,-1.20 2.41,-0.91 2.52,-0.62 2.56,-0.31 2.59,-0.00 2.59,-0.00 L 2.59,-0.00 Z"></path></g><g transform="translate(258.7534006445237 163.84464710990144) rotate(182.45783329811476 -3.69278353157668 8.518539489994623)" stroke="none"><path fill="#e03131" d="M 1.70,1.88 Q 1.70,1.88 1.09,2.49 0.48,3.10 -0.40,4.10 -1.28,5.11 -2.17,6.08 -3.05,7.06 -3.61,8.01 -4.18,8.97 -4.06,10.19 -3.93,11.40 -3.89,12.60 -3.85,13.80 -3.64,14.87 -3.44,15.95 -3.36,16.52 -3.29,17.08 -3.40,17.65 -3.51,18.21 -3.79,18.71 -4.08,19.21 -4.50,19.59 -4.93,19.97 -5.46,20.19 -5.99,20.42 -6.56,20.46 -7.13,20.51 -7.69,20.37 -8.24,20.23 -8.72,19.92 -9.21,19.61 -9.56,19.16 -9.92,18.71 -10.12,18.17 -10.31,17.63 -10.33,17.06 -10.34,16.49 -10.17,15.94 -10.00,15.39 -9.66,14.93 -9.33,14.46 -8.86,14.13 -8.39,13.80 -7.85,13.63 -7.30,13.46 -6.72,13.48 -6.15,13.50 -5.61,13.70 -5.08,13.90 -4.63,14.26 -4.18,14.62 -3.88,15.10 -3.57,15.59 -3.43,16.14 -3.30,16.70 -3.35,17.27 -3.39,17.84 -3.62,18.37 -3.85,18.90 -4.24,19.32 -4.62,19.75 -5.12,20.03 -5.62,20.31 -6.18,20.41 -6.75,20.52 -7.31,20.44 -7.88,20.36 -8.39,20.10 -8.91,19.85 -9.31,19.44 -9.72,19.03 -9.97,18.52 -10.22,18.01 -10.22,18.01 -10.22,18.01 -10.56,15.77 -10.90,13.53 -10.86,12.47 -10.83,11.40 -10.77,10.27 -10.71,9.14 -10.39,7.82 -10.08,6.50 -9.28,5.24 -8.49,3.98 -7.72,3.21 -6.96,2.44 -5.93,1.60 -4.91,0.76 -3.97,-0.02 -3.03,-0.80 -2.37,-1.34 -1.70,-1.88 -1.45,-2.06 -1.20,-2.24 -0.91,-2.35 -0.62,-2.46 -0.32,-2.50 -0.02,-2.54 0.28,-2.50 0.58,-2.47 0.87,-2.36 1.16,-2.26 1.41,-2.09 1.67,-1.91 1.87,-1.69 2.08,-1.46 2.22,-1.19 2.37,-0.92 2.44,-0.62 2.52,-0.32 2.52,-0.02 2.52,0.28 2.45,0.58 2.38,0.88 2.24,1.15 2.10,1.42 1.90,1.65 1.70,1.88 1.70,1.88 L 1.70,1.88 Z"></path></g><g transform="translate(244.23388482234543 150.01814358550965) rotate(182.45783329811476 6.2803455416431575 4.731077649459991)" stroke="none"><path fill="#1971c2" d="M 2.15,-1.10 Q 2.15,-1.10 2.43,-0.67 2.70,-0.23 3.45,0.71 4.21,1.66 5.14,2.29 6.08,2.92 7.06,3.39 8.05,3.87 9.21,4.43 10.36,4.99 11.46,5.50 12.55,6.01 13.10,6.11 13.65,6.21 14.14,6.48 14.62,6.76 15.00,7.17 15.37,7.58 15.60,8.09 15.82,8.60 15.87,9.16 15.92,9.71 15.79,10.25 15.66,10.79 15.36,11.27 15.06,11.74 14.63,12.09 14.20,12.44 13.68,12.64 13.16,12.83 12.60,12.85 12.04,12.87 11.51,12.71 10.97,12.55 10.52,12.23 10.06,11.91 9.74,11.46 9.41,11.01 9.24,10.48 9.07,9.94 9.09,9.39 9.10,8.83 9.29,8.31 9.47,7.78 9.82,7.34 10.17,6.91 10.63,6.60 11.10,6.30 11.64,6.16 12.18,6.02 12.74,6.07 13.29,6.11 13.81,6.32 14.32,6.54 14.74,6.91 15.15,7.28 15.43,7.76 15.71,8.25 15.82,8.79 15.93,9.34 15.86,9.89 15.78,10.44 15.54,10.95 15.30,11.45 14.90,11.84 14.51,12.24 14.01,12.49 13.52,12.74 12.97,12.82 12.41,12.90 12.41,12.90 12.41,12.90 9.55,11.77 6.68,10.64 5.76,10.06 4.84,9.48 3.52,8.66 2.20,7.84 1.38,6.90 0.57,5.96 -0.18,5.06 -0.95,4.16 -1.36,3.10 -1.78,2.05 -1.96,1.57 -2.15,1.10 -2.25,0.82 -2.35,0.55 -2.39,0.26 -2.42,-0.02 -2.38,-0.31 -2.34,-0.60 -2.24,-0.87 -2.13,-1.14 -1.96,-1.38 -1.79,-1.62 -1.57,-1.81 -1.35,-2.00 -1.09,-2.14 -0.83,-2.27 -0.55,-2.34 -0.26,-2.40 0.02,-2.40 0.31,-2.40 0.60,-2.32 0.88,-2.25 1.14,-2.11 1.39,-1.97 1.61,-1.78 1.83,-1.58 1.99,-1.34 2.15,-1.10 2.15,-1.10 L 2.15,-1.10 Z"></path></g><g transform="translate(290.72764233010537 164.81564430304493) rotate(182.45783329811476 2.148404730336523 6.521962290356868)" stroke="none"><path fill="#e03131" d="M 2.50,-0.38 Q 2.50,-0.38 2.68,0.48 2.86,1.35 3.30,2.34 3.73,3.34 4.11,4.42 4.48,5.51 5.01,6.58 5.53,7.64 6.48,9.90 7.43,12.16 7.47,12.68 7.52,13.20 7.40,13.72 7.27,14.23 6.99,14.68 6.71,15.12 6.31,15.46 5.90,15.79 5.41,15.97 4.91,16.16 4.39,16.18 3.86,16.20 3.35,16.05 2.85,15.90 2.42,15.59 1.99,15.29 1.68,14.86 1.37,14.44 1.21,13.93 1.05,13.43 1.06,12.91 1.07,12.38 1.25,11.88 1.43,11.39 1.75,10.97 2.08,10.56 2.52,10.27 2.96,9.99 3.47,9.85 3.98,9.72 4.51,9.76 5.03,9.80 5.52,10.00 6.01,10.21 6.40,10.56 6.80,10.91 7.06,11.36 7.32,11.82 7.42,12.34 7.53,12.85 7.46,13.38 7.39,13.90 7.16,14.37 6.93,14.85 6.56,15.22 6.19,15.60 5.72,15.83 5.25,16.07 4.73,16.15 4.21,16.22 3.69,16.13 3.17,16.03 2.71,15.78 2.25,15.52 1.90,15.13 1.54,14.74 1.33,14.26 1.12,13.78 1.12,13.78 1.12,13.78 0.19,11.54 -0.72,9.31 -0.95,8.16 -1.18,7.02 -1.44,5.88 -1.71,4.75 -2.01,3.45 -2.32,2.16 -2.41,1.27 -2.50,0.38 -2.51,0.08 -2.52,-0.22 -2.46,-0.52 -2.40,-0.82 -2.26,-1.09 -2.13,-1.37 -1.93,-1.60 -1.74,-1.84 -1.49,-2.02 -1.25,-2.20 -0.96,-2.32 -0.68,-2.44 -0.38,-2.49 -0.08,-2.53 0.22,-2.51 0.52,-2.48 0.81,-2.38 1.10,-2.28 1.36,-2.11 1.62,-1.95 1.83,-1.73 2.04,-1.50 2.19,-1.24 2.34,-0.97 2.42,-0.68 2.50,-0.38 2.50,-0.38 L 2.50,-0.38 Z"></path></g><g transform="translate(286.5798921799047 153.20560571606862) rotate(182.45783329811476 1.4398904250203657 3.740133314514253)" stroke="none"><path fill="#1971c2" d="M 2.43,-0.71 Q 2.43,-0.71 2.70,0.03 2.97,0.78 3.45,1.78 3.93,2.78 4.48,4.15 5.03,5.52 5.27,5.92 5.52,6.32 5.63,6.78 5.73,7.24 5.69,7.71 5.64,8.17 5.45,8.60 5.26,9.03 4.94,9.38 4.62,9.72 4.21,9.95 3.79,10.17 3.33,10.25 2.87,10.33 2.40,10.26 1.94,10.19 1.52,9.98 1.10,9.76 0.78,9.42 0.45,9.09 0.25,8.66 0.04,8.24 -0.00,7.77 -0.06,7.30 0.03,6.84 0.12,6.38 0.36,5.98 0.60,5.57 0.95,5.27 1.31,4.96 1.74,4.78 2.18,4.60 2.65,4.57 3.12,4.54 3.57,4.66 4.02,4.78 4.42,5.04 4.81,5.30 5.10,5.67 5.39,6.04 5.54,6.48 5.70,6.93 5.70,7.40 5.71,7.87 5.56,8.31 5.42,8.76 5.14,9.14 4.86,9.52 4.47,9.78 4.08,10.05 3.63,10.18 3.18,10.31 2.71,10.29 2.24,10.27 1.80,10.10 1.37,9.93 1.00,9.63 0.64,9.33 0.64,9.33 0.64,9.33 -0.35,7.04 -1.35,4.75 -1.70,3.51 -2.06,2.28 -2.24,1.50 -2.43,0.71 -2.48,0.41 -2.53,0.11 -2.50,-0.18 -2.48,-0.49 -2.39,-0.78 -2.29,-1.07 -2.13,-1.33 -1.97,-1.59 -1.75,-1.80 -1.53,-2.01 -1.27,-2.17 -1.00,-2.32 -0.71,-2.41 -0.42,-2.49 -0.11,-2.51 0.18,-2.52 0.48,-2.46 0.78,-2.40 1.06,-2.27 1.34,-2.14 1.58,-1.95 1.81,-1.76 2.00,-1.52 2.18,-1.27 2.30,-0.99 2.43,-0.71 2.43,-0.71 L 2.43,-0.71 Z"></path></g><g transform="translate(262.15146783213936 233.7027542691134) rotate(0 -1.6292576713948677 7.276178967531962)" stroke="none"><path fill="#1971c2" d="M 1.78,1.71 Q 1.78,1.71 1.41,2.16 1.04,2.62 0.66,3.82 0.27,5.01 0.22,6.12 0.16,7.23 0.12,8.53 0.08,9.82 0.33,11.18 0.58,12.54 0.81,13.04 1.05,13.54 1.12,14.09 1.18,14.64 1.07,15.19 0.95,15.73 0.67,16.21 0.39,16.68 -0.02,17.05 -0.43,17.41 -0.95,17.62 -1.46,17.83 -2.01,17.86 -2.57,17.90 -3.10,17.76 -3.64,17.61 -4.10,17.31 -4.56,17.00 -4.90,16.56 -5.24,16.13 -5.42,15.60 -5.60,15.08 -5.61,14.53 -5.61,13.97 -5.44,13.44 -5.27,12.92 -4.94,12.47 -4.61,12.03 -4.15,11.71 -3.70,11.40 -3.16,11.25 -2.63,11.09 -2.08,11.12 -1.52,11.14 -1.01,11.34 -0.49,11.54 -0.07,11.90 0.35,12.25 0.64,12.72 0.93,13.19 1.05,13.73 1.18,14.27 1.12,14.83 1.07,15.38 0.84,15.88 0.61,16.39 0.24,16.79 -0.13,17.20 -0.62,17.46 -1.10,17.73 -1.65,17.82 -2.20,17.92 -2.74,17.83 -3.29,17.75 -3.78,17.49 -4.27,17.24 -4.66,16.84 -5.04,16.44 -5.04,16.44 -5.04,16.44 -5.86,14.04 -6.67,11.64 -6.61,10.55 -6.56,9.46 -6.37,8.34 -6.19,7.22 -5.99,6.11 -5.79,5.01 -5.33,3.89 -4.87,2.77 -4.44,1.79 -4.01,0.81 -3.33,-0.05 -2.66,-0.93 -2.22,-1.32 -1.78,-1.71 -1.55,-1.89 -1.32,-2.08 -1.05,-2.21 -0.78,-2.34 -0.49,-2.40 -0.19,-2.46 0.09,-2.45 0.39,-2.43 0.68,-2.35 0.96,-2.27 1.22,-2.12 1.48,-1.97 1.69,-1.76 1.91,-1.56 2.07,-1.31 2.23,-1.05 2.32,-0.77 2.42,-0.49 2.44,-0.19 2.46,0.09 2.42,0.39 2.37,0.68 2.25,0.96 2.14,1.23 1.96,1.47 1.78,1.71 1.78,1.71 L 1.78,1.71 Z"></path></g><g transform="translate(261.43315408802 251.9544322377757) rotate(0 6.257494355713703 2.762251355153296)" stroke="none"><path fill="#e03131" d="M 1.88,-1.64 Q 1.88,-1.64 2.32,-1.21 2.75,-0.79 3.69,-0.12 4.63,0.54 5.63,1.12 6.63,1.69 7.90,1.82 9.16,1.94 10.88,2.05 12.60,2.15 13.13,2.27 13.66,2.38 14.13,2.66 14.60,2.93 14.96,3.35 15.31,3.76 15.52,4.26 15.72,4.77 15.76,5.31 15.79,5.85 15.65,6.38 15.51,6.91 15.21,7.36 14.90,7.81 14.47,8.14 14.04,8.48 13.53,8.66 13.01,8.83 12.47,8.84 11.92,8.84 11.41,8.67 10.89,8.50 10.45,8.18 10.02,7.85 9.71,7.40 9.40,6.95 9.25,6.43 9.10,5.91 9.13,5.36 9.15,4.82 9.35,4.31 9.55,3.80 9.89,3.39 10.24,2.97 10.71,2.68 11.17,2.40 11.70,2.28 12.23,2.16 12.78,2.21 13.32,2.27 13.81,2.49 14.31,2.72 14.71,3.09 15.11,3.46 15.36,3.94 15.62,4.42 15.72,4.95 15.81,5.49 15.72,6.03 15.64,6.57 15.39,7.05 15.14,7.53 14.75,7.91 14.35,8.29 13.86,8.52 13.37,8.75 12.83,8.82 12.29,8.88 12.29,8.88 12.29,8.88 10.72,8.71 9.16,8.55 8.05,8.35 6.94,8.16 5.81,7.78 4.69,7.40 3.53,6.77 2.38,6.13 1.51,5.38 0.65,4.63 -0.25,3.62 -1.16,2.62 -1.52,2.13 -1.88,1.64 -2.05,1.39 -2.22,1.14 -2.33,0.86 -2.43,0.57 -2.46,0.27 -2.50,-0.02 -2.46,-0.32 -2.42,-0.62 -2.31,-0.90 -2.20,-1.18 -2.03,-1.42 -1.85,-1.67 -1.63,-1.87 -1.40,-2.07 -1.13,-2.21 -0.86,-2.34 -0.57,-2.41 -0.28,-2.48 0.02,-2.48 0.32,-2.48 0.61,-2.40 0.90,-2.33 1.17,-2.19 1.44,-2.04 1.66,-1.84 1.88,-1.64 1.88,-1.64 L 1.88,-1.64 Z"></path></g><g transform="translate(293.33609729708115 237.4020567391839) rotate(0 1.9476118909973081 5.673056675765224)" stroke="none"><path fill="#1971c2" d="M 2.59,-0.24 Q 2.59,-0.24 2.71,0.69 2.84,1.63 3.22,2.67 3.60,3.70 4.12,4.75 4.64,5.81 5.66,7.85 6.67,9.90 6.82,10.39 6.96,10.87 6.94,11.38 6.92,11.89 6.75,12.36 6.57,12.83 6.25,13.23 5.92,13.62 5.49,13.89 5.07,14.16 4.57,14.27 4.08,14.39 3.57,14.35 3.07,14.30 2.61,14.09 2.14,13.89 1.77,13.55 1.39,13.21 1.15,12.76 0.90,12.32 0.81,11.82 0.72,11.32 0.80,10.82 0.87,10.32 1.10,9.87 1.33,9.42 1.69,9.06 2.05,8.71 2.51,8.48 2.96,8.26 3.47,8.20 3.97,8.14 4.47,8.24 4.96,8.34 5.40,8.59 5.84,8.84 6.17,9.22 6.51,9.60 6.71,10.07 6.90,10.54 6.94,11.05 6.97,11.55 6.85,12.04 6.72,12.53 6.44,12.96 6.17,13.38 5.77,13.69 5.37,14.01 4.89,14.18 4.42,14.35 3.91,14.36 3.40,14.37 2.92,14.21 2.44,14.06 2.03,13.76 1.62,13.46 1.33,13.05 1.03,12.63 1.04,12.63 1.04,12.63 0.17,10.76 -0.69,8.90 -1.06,7.85 -1.43,6.79 -1.78,5.67 -2.12,4.54 -2.30,3.35 -2.48,2.15 -2.53,1.20 -2.59,0.24 -2.58,-0.06 -2.57,-0.37 -2.49,-0.68 -2.41,-0.98 -2.25,-1.25 -2.10,-1.53 -1.89,-1.76 -1.67,-1.99 -1.41,-2.16 -1.15,-2.33 -0.85,-2.43 -0.55,-2.54 -0.24,-2.57 0.06,-2.60 0.37,-2.55 0.68,-2.51 0.97,-2.39 1.26,-2.27 1.52,-2.09 1.77,-1.90 1.97,-1.66 2.18,-1.42 2.31,-1.14 2.45,-0.86 2.52,-0.55 2.59,-0.24 2.59,-0.24 L 2.59,-0.24 Z"></path></g><g transform="translate(297.95288713151814 251.52019962775378) rotate(0 1.9884251719131498 3.6862470295550054)" stroke="none"><path fill="#e03131" d="M 2.43,-0.00 Q 2.43,-0.00 2.48,0.53 2.53,1.08 3.37,1.98 4.21,2.88 5.27,4.21 6.33,5.55 6.55,5.98 6.77,6.41 6.84,6.88 6.91,7.36 6.82,7.84 6.74,8.31 6.50,8.73 6.27,9.15 5.91,9.48 5.56,9.81 5.11,10.00 4.67,10.19 4.19,10.24 3.71,10.28 3.24,10.17 2.77,10.06 2.37,9.80 1.96,9.54 1.65,9.17 1.35,8.80 1.18,8.35 1.00,7.89 0.99,7.41 0.97,6.93 1.11,6.47 1.25,6.01 1.52,5.61 1.80,5.22 2.19,4.93 2.58,4.65 3.04,4.50 3.50,4.36 3.98,4.37 4.46,4.37 4.92,4.54 5.37,4.70 5.75,5.00 6.13,5.30 6.39,5.70 6.66,6.11 6.78,6.57 6.90,7.04 6.86,7.52 6.83,8.00 6.64,8.45 6.45,8.89 6.13,9.25 5.82,9.62 5.40,9.86 4.98,10.10 4.51,10.19 4.03,10.29 3.56,10.23 3.08,10.16 2.64,9.95 2.21,9.74 1.87,9.41 1.52,9.07 1.52,9.07 1.52,9.07 0.29,7.31 -0.94,5.55 -1.47,4.60 -2.00,3.65 -2.26,2.37 -2.53,1.09 -2.48,0.54 -2.43,0.00 -2.40,-0.28 -2.36,-0.57 -2.26,-0.85 -2.16,-1.12 -1.99,-1.37 -1.82,-1.61 -1.60,-1.80 -1.38,-2.00 -1.12,-2.14 -0.86,-2.27 -0.58,-2.35 -0.29,-2.42 -0.00,-2.42 0.28,-2.42 0.57,-2.35 0.86,-2.28 1.12,-2.14 1.38,-2.00 1.60,-1.81 1.82,-1.62 1.99,-1.37 2.15,-1.13 2.26,-0.86 2.36,-0.58 2.40,-0.29 2.43,-0.00 2.43,-0.00 L 2.43,-0.00 Z"></path></g><g transform="translate(260.3703862736141 245.57614275342146) rotate(180 -1.6292576713948677 7.276178967531962)" stroke="none"><path fill="#1971c2" d="M 1.78,1.71 Q 1.78,1.71 1.41,2.16 1.04,2.62 0.66,3.82 0.27,5.01 0.22,6.12 0.16,7.23 0.12,8.53 0.08,9.82 0.33,11.18 0.58,12.54 0.81,13.04 1.05,13.54 1.12,14.09 1.18,14.64 1.07,15.19 0.95,15.73 0.67,16.21 0.39,16.68 -0.02,17.05 -0.43,17.41 -0.95,17.62 -1.46,17.83 -2.01,17.86 -2.57,17.90 -3.10,17.76 -3.64,17.61 -4.10,17.31 -4.56,17.00 -4.90,16.56 -5.24,16.13 -5.42,15.60 -5.60,15.08 -5.61,14.53 -5.61,13.97 -5.44,13.44 -5.27,12.92 -4.94,12.47 -4.61,12.03 -4.15,11.71 -3.70,11.40 -3.16,11.25 -2.63,11.09 -2.08,11.12 -1.52,11.14 -1.01,11.34 -0.49,11.54 -0.07,11.90 0.35,12.25 0.64,12.72 0.93,13.19 1.05,13.73 1.18,14.27 1.12,14.83 1.07,15.38 0.84,15.88 0.61,16.39 0.24,16.79 -0.13,17.20 -0.62,17.46 -1.10,17.73 -1.65,17.82 -2.20,17.92 -2.74,17.83 -3.29,17.75 -3.78,17.49 -4.27,17.24 -4.66,16.84 -5.04,16.44 -5.04,16.44 -5.04,16.44 -5.86,14.04 -6.67,11.64 -6.61,10.55 -6.56,9.46 -6.37,8.34 -6.19,7.22 -5.99,6.11 -5.79,5.01 -5.33,3.89 -4.87,2.77 -4.44,1.79 -4.01,0.81 -3.33,-0.05 -2.66,-0.93 -2.22,-1.32 -1.78,-1.71 -1.55,-1.89 -1.32,-2.08 -1.05,-2.21 -0.78,-2.34 -0.49,-2.40 -0.19,-2.46 0.09,-2.45 0.39,-2.43 0.68,-2.35 0.96,-2.27 1.22,-2.12 1.48,-1.97 1.69,-1.76 1.91,-1.56 2.07,-1.31 2.23,-1.05 2.32,-0.77 2.42,-0.49 2.44,-0.19 2.46,0.09 2.42,0.39 2.37,0.68 2.25,0.96 2.14,1.23 1.96,1.47 1.78,1.71 1.78,1.71 L 1.78,1.71 Z"></path></g><g transform="translate(245.31519596351626 236.35232000951638) rotate(180 6.257494355713703 2.762251355153296)" stroke="none"><path fill="#e03131" d="M 1.88,-1.64 Q 1.88,-1.64 2.32,-1.21 2.75,-0.79 3.69,-0.12 4.63,0.54 5.63,1.12 6.63,1.69 7.90,1.82 9.16,1.94 10.88,2.05 12.60,2.15 13.13,2.27 13.66,2.38 14.13,2.66 14.60,2.93 14.96,3.35 15.31,3.76 15.52,4.26 15.72,4.77 15.76,5.31 15.79,5.85 15.65,6.38 15.51,6.91 15.21,7.36 14.90,7.81 14.47,8.14 14.04,8.48 13.53,8.66 13.01,8.83 12.47,8.84 11.92,8.84 11.41,8.67 10.89,8.50 10.45,8.18 10.02,7.85 9.71,7.40 9.40,6.95 9.25,6.43 9.10,5.91 9.13,5.36 9.15,4.82 9.35,4.31 9.55,3.80 9.89,3.39 10.24,2.97 10.71,2.68 11.17,2.40 11.70,2.28 12.23,2.16 12.78,2.21 13.32,2.27 13.81,2.49 14.31,2.72 14.71,3.09 15.11,3.46 15.36,3.94 15.62,4.42 15.72,4.95 15.81,5.49 15.72,6.03 15.64,6.57 15.39,7.05 15.14,7.53 14.75,7.91 14.35,8.29 13.86,8.52 13.37,8.75 12.83,8.82 12.29,8.88 12.29,8.88 12.29,8.88 10.72,8.71 9.16,8.55 8.05,8.35 6.94,8.16 5.81,7.78 4.69,7.40 3.53,6.77 2.38,6.13 1.51,5.38 0.65,4.63 -0.25,3.62 -1.16,2.62 -1.52,2.13 -1.88,1.64 -2.05,1.39 -2.22,1.14 -2.33,0.86 -2.43,0.57 -2.46,0.27 -2.50,-0.02 -2.46,-0.32 -2.42,-0.62 -2.31,-0.90 -2.20,-1.18 -2.03,-1.42 -1.85,-1.67 -1.63,-1.87 -1.40,-2.07 -1.13,-2.21 -0.86,-2.34 -0.57,-2.41 -0.28,-2.48 0.02,-2.48 0.32,-2.48 0.61,-2.40 0.90,-2.33 1.17,-2.19 1.44,-2.04 1.66,-1.84 1.88,-1.64 1.88,-1.64 L 1.88,-1.64 Z"></path></g><g transform="translate(290.99993655815416 247.92043691030668) rotate(180 1.9476118909973081 5.673056675765224)" stroke="none"><path fill="#1971c2" d="M 2.59,-0.24 Q 2.59,-0.24 2.71,0.69 2.84,1.63 3.22,2.67 3.60,3.70 4.12,4.75 4.64,5.81 5.66,7.85 6.67,9.90 6.82,10.39 6.96,10.87 6.94,11.38 6.92,11.89 6.75,12.36 6.57,12.83 6.25,13.23 5.92,13.62 5.49,13.89 5.07,14.16 4.57,14.27 4.08,14.39 3.57,14.35 3.07,14.30 2.61,14.09 2.14,13.89 1.77,13.55 1.39,13.21 1.15,12.76 0.90,12.32 0.81,11.82 0.72,11.32 0.80,10.82 0.87,10.32 1.10,9.87 1.33,9.42 1.69,9.06 2.05,8.71 2.51,8.48 2.96,8.26 3.47,8.20 3.97,8.14 4.47,8.24 4.96,8.34 5.40,8.59 5.84,8.84 6.17,9.22 6.51,9.60 6.71,10.07 6.90,10.54 6.94,11.05 6.97,11.55 6.85,12.04 6.72,12.53 6.44,12.96 6.17,13.38 5.77,13.69 5.37,14.01 4.89,14.18 4.42,14.35 3.91,14.36 3.40,14.37 2.92,14.21 2.44,14.06 2.03,13.76 1.62,13.46 1.33,13.05 1.03,12.63 1.04,12.63 1.04,12.63 0.17,10.76 -0.69,8.90 -1.06,7.85 -1.43,6.79 -1.78,5.67 -2.12,4.54 -2.30,3.35 -2.48,2.15 -2.53,1.20 -2.59,0.24 -2.58,-0.06 -2.57,-0.37 -2.49,-0.68 -2.41,-0.98 -2.25,-1.25 -2.10,-1.53 -1.89,-1.76 -1.67,-1.99 -1.41,-2.16 -1.15,-2.33 -0.85,-2.43 -0.55,-2.54 -0.24,-2.57 0.06,-2.60 0.37,-2.55 0.68,-2.51 0.97,-2.39 1.26,-2.27 1.52,-2.09 1.77,-1.90 1.97,-1.66 2.18,-1.42 2.31,-1.14 2.45,-0.86 2.52,-0.55 2.59,-0.24 2.59,-0.24 L 2.59,-0.24 Z"></path></g><g transform="translate(286.3015201618853 237.7759133141573) rotate(180 1.9884251719131498 3.6862470295550054)" stroke="none"><path fill="#e03131" d="M 2.43,-0.00 Q 2.43,-0.00 2.48,0.53 2.53,1.08 3.37,1.98 4.21,2.88 5.27,4.21 6.33,5.55 6.55,5.98 6.77,6.41 6.84,6.88 6.91,7.36 6.82,7.84 6.74,8.31 6.50,8.73 6.27,9.15 5.91,9.48 5.56,9.81 5.11,10.00 4.67,10.19 4.19,10.24 3.71,10.28 3.24,10.17 2.77,10.06 2.37,9.80 1.96,9.54 1.65,9.17 1.35,8.80 1.18,8.35 1.00,7.89 0.99,7.41 0.97,6.93 1.11,6.47 1.25,6.01 1.52,5.61 1.80,5.22 2.19,4.93 2.58,4.65 3.04,4.50 3.50,4.36 3.98,4.37 4.46,4.37 4.92,4.54 5.37,4.70 5.75,5.00 6.13,5.30 6.39,5.70 6.66,6.11 6.78,6.57 6.90,7.04 6.86,7.52 6.83,8.00 6.64,8.45 6.45,8.89 6.13,9.25 5.82,9.62 5.40,9.86 4.98,10.10 4.51,10.19 4.03,10.29 3.56,10.23 3.08,10.16 2.64,9.95 2.21,9.74 1.87,9.41 1.52,9.07 1.52,9.07 1.52,9.07 0.29,7.31 -0.94,5.55 -1.47,4.60 -2.00,3.65 -2.26,2.37 -2.53,1.09 -2.48,0.54 -2.43,0.00 -2.40,-0.28 -2.36,-0.57 -2.26,-0.85 -2.16,-1.12 -1.99,-1.37 -1.82,-1.61 -1.60,-1.80 -1.38,-2.00 -1.12,-2.14 -0.86,-2.27 -0.58,-2.35 -0.29,-2.42 -0.00,-2.42 0.28,-2.42 0.57,-2.35 0.86,-2.28 1.12,-2.14 1.38,-2.00 1.60,-1.81 1.82,-1.62 1.99,-1.37 2.15,-1.13 2.26,-0.86 2.36,-0.58 2.40,-0.29 2.43,-0.00 2.43,-0.00 L 2.43,-0.00 Z"></path></g><g transform="translate(355.87028551444945 85.60922844125179) rotate(182.45783329811476 -3.69278353157668 8.518539489994623)" stroke="none"><path fill="#e03131" d="M 1.70,1.88 Q 1.70,1.88 1.09,2.49 0.48,3.10 -0.40,4.10 -1.28,5.11 -2.17,6.08 -3.05,7.06 -3.61,8.01 -4.18,8.97 -4.06,10.19 -3.93,11.40 -3.89,12.60 -3.85,13.80 -3.64,14.87 -3.44,15.95 -3.36,16.52 -3.29,17.08 -3.40,17.65 -3.51,18.21 -3.79,18.71 -4.08,19.21 -4.50,19.59 -4.93,19.97 -5.46,20.19 -5.99,20.42 -6.56,20.46 -7.13,20.51 -7.69,20.37 -8.24,20.23 -8.72,19.92 -9.21,19.61 -9.56,19.16 -9.92,18.71 -10.12,18.17 -10.31,17.63 -10.33,17.06 -10.34,16.49 -10.17,15.94 -10.00,15.39 -9.66,14.93 -9.33,14.46 -8.86,14.13 -8.39,13.80 -7.85,13.63 -7.30,13.46 -6.72,13.48 -6.15,13.50 -5.61,13.70 -5.08,13.90 -4.63,14.26 -4.18,14.62 -3.88,15.10 -3.57,15.59 -3.43,16.14 -3.30,16.70 -3.35,17.27 -3.39,17.84 -3.62,18.37 -3.85,18.90 -4.24,19.32 -4.62,19.75 -5.12,20.03 -5.62,20.31 -6.18,20.41 -6.75,20.52 -7.31,20.44 -7.88,20.36 -8.39,20.10 -8.91,19.85 -9.31,19.44 -9.72,19.03 -9.97,18.52 -10.22,18.01 -10.22,18.01 -10.22,18.01 -10.56,15.77 -10.90,13.53 -10.86,12.47 -10.83,11.40 -10.77,10.27 -10.71,9.14 -10.39,7.82 -10.08,6.50 -9.28,5.24 -8.49,3.98 -7.72,3.21 -6.96,2.44 -5.93,1.60 -4.91,0.76 -3.97,-0.02 -3.03,-0.80 -2.37,-1.34 -1.70,-1.88 -1.45,-2.06 -1.20,-2.24 -0.91,-2.35 -0.62,-2.46 -0.32,-2.50 -0.02,-2.54 0.28,-2.50 0.58,-2.47 0.87,-2.36 1.16,-2.26 1.41,-2.09 1.67,-1.91 1.87,-1.69 2.08,-1.46 2.22,-1.19 2.37,-0.92 2.44,-0.62 2.52,-0.32 2.52,-0.02 2.52,0.28 2.45,0.58 2.38,0.88 2.24,1.15 2.10,1.42 1.90,1.65 1.70,1.88 1.70,1.88 L 1.70,1.88 Z"></path></g><g transform="translate(341.3507696922713 71.78272491685999) rotate(182.45783329811476 6.2803455416431575 4.731077649459991)" stroke="none"><path fill="#1971c2" d="M 2.15,-1.10 Q 2.15,-1.10 2.43,-0.67 2.70,-0.23 3.45,0.71 4.21,1.66 5.14,2.29 6.08,2.92 7.06,3.39 8.05,3.87 9.21,4.43 10.36,4.99 11.46,5.50 12.55,6.01 13.10,6.11 13.65,6.21 14.14,6.48 14.62,6.76 15.00,7.17 15.37,7.58 15.60,8.09 15.82,8.60 15.87,9.16 15.92,9.71 15.79,10.25 15.66,10.79 15.36,11.27 15.06,11.74 14.63,12.09 14.20,12.44 13.68,12.64 13.16,12.83 12.60,12.85 12.04,12.87 11.51,12.71 10.97,12.55 10.52,12.23 10.06,11.91 9.74,11.46 9.41,11.01 9.24,10.48 9.07,9.94 9.09,9.39 9.10,8.83 9.29,8.31 9.47,7.78 9.82,7.34 10.17,6.91 10.63,6.60 11.10,6.30 11.64,6.16 12.18,6.02 12.74,6.07 13.29,6.11 13.81,6.32 14.32,6.54 14.74,6.91 15.15,7.28 15.43,7.76 15.71,8.25 15.82,8.79 15.93,9.34 15.86,9.89 15.78,10.44 15.54,10.95 15.30,11.45 14.90,11.84 14.51,12.24 14.01,12.49 13.52,12.74 12.97,12.82 12.41,12.90 12.41,12.90 12.41,12.90 9.55,11.77 6.68,10.64 5.76,10.06 4.84,9.48 3.52,8.66 2.20,7.84 1.38,6.90 0.57,5.96 -0.18,5.06 -0.95,4.16 -1.36,3.10 -1.78,2.05 -1.96,1.57 -2.15,1.10 -2.25,0.82 -2.35,0.55 -2.39,0.26 -2.42,-0.02 -2.38,-0.31 -2.34,-0.60 -2.24,-0.87 -2.13,-1.14 -1.96,-1.38 -1.79,-1.62 -1.57,-1.81 -1.35,-2.00 -1.09,-2.14 -0.83,-2.27 -0.55,-2.34 -0.26,-2.40 0.02,-2.40 0.31,-2.40 0.60,-2.32 0.88,-2.25 1.14,-2.11 1.39,-1.97 1.61,-1.78 1.83,-1.58 1.99,-1.34 2.15,-1.10 2.15,-1.10 L 2.15,-1.10 Z"></path></g><g transform="translate(380.566542812244 86.18038369159521) rotate(182.45783329811476 2.148404730336523 6.521962290356868)" stroke="none"><path fill="#e03131" d="M 2.50,-0.38 Q 2.50,-0.38 2.68,0.48 2.86,1.35 3.30,2.34 3.73,3.34 4.11,4.42 4.48,5.51 5.01,6.58 5.53,7.64 6.48,9.90 7.43,12.16 7.47,12.68 7.52,13.20 7.40,13.72 7.27,14.23 6.99,14.68 6.71,15.12 6.31,15.46 5.90,15.79 5.41,15.97 4.91,16.16 4.39,16.18 3.86,16.20 3.35,16.05 2.85,15.90 2.42,15.59 1.99,15.29 1.68,14.86 1.37,14.44 1.21,13.93 1.05,13.43 1.06,12.91 1.07,12.38 1.25,11.88 1.43,11.39 1.75,10.97 2.08,10.56 2.52,10.27 2.96,9.99 3.47,9.85 3.98,9.72 4.51,9.76 5.03,9.80 5.52,10.00 6.01,10.21 6.40,10.56 6.80,10.91 7.06,11.36 7.32,11.82 7.42,12.34 7.53,12.85 7.46,13.38 7.39,13.90 7.16,14.37 6.93,14.85 6.56,15.22 6.19,15.60 5.72,15.83 5.25,16.07 4.73,16.15 4.21,16.22 3.69,16.13 3.17,16.03 2.71,15.78 2.25,15.52 1.90,15.13 1.54,14.74 1.33,14.26 1.12,13.78 1.12,13.78 1.12,13.78 0.19,11.54 -0.72,9.31 -0.95,8.16 -1.18,7.02 -1.44,5.88 -1.71,4.75 -2.01,3.45 -2.32,2.16 -2.41,1.27 -2.50,0.38 -2.51,0.08 -2.52,-0.22 -2.46,-0.52 -2.40,-0.82 -2.26,-1.09 -2.13,-1.37 -1.93,-1.60 -1.74,-1.84 -1.49,-2.02 -1.25,-2.20 -0.96,-2.32 -0.68,-2.44 -0.38,-2.49 -0.08,-2.53 0.22,-2.51 0.52,-2.48 0.81,-2.38 1.10,-2.28 1.36,-2.11 1.62,-1.95 1.83,-1.73 2.04,-1.50 2.19,-1.24 2.34,-0.97 2.42,-0.68 2.50,-0.38 2.50,-0.38 L 2.50,-0.38 Z"></path></g><g transform="translate(376.41879266204336 74.5703451046189) rotate(182.45783329811476 1.4398904250203657 3.740133314514253)" stroke="none"><path fill="#1971c2" d="M 2.43,-0.71 Q 2.43,-0.71 2.70,0.03 2.97,0.78 3.45,1.78 3.93,2.78 4.48,4.15 5.03,5.52 5.27,5.92 5.52,6.32 5.63,6.78 5.73,7.24 5.69,7.71 5.64,8.17 5.45,8.60 5.26,9.03 4.94,9.38 4.62,9.72 4.21,9.95 3.79,10.17 3.33,10.25 2.87,10.33 2.40,10.26 1.94,10.19 1.52,9.98 1.10,9.76 0.78,9.42 0.45,9.09 0.25,8.66 0.04,8.24 -0.00,7.77 -0.06,7.30 0.03,6.84 0.12,6.38 0.36,5.98 0.60,5.57 0.95,5.27 1.31,4.96 1.74,4.78 2.18,4.60 2.65,4.57 3.12,4.54 3.57,4.66 4.02,4.78 4.42,5.04 4.81,5.30 5.10,5.67 5.39,6.04 5.54,6.48 5.70,6.93 5.70,7.40 5.71,7.87 5.56,8.31 5.42,8.76 5.14,9.14 4.86,9.52 4.47,9.78 4.08,10.05 3.63,10.18 3.18,10.31 2.71,10.29 2.24,10.27 1.80,10.10 1.37,9.93 1.00,9.63 0.64,9.33 0.64,9.33 0.64,9.33 -0.35,7.04 -1.35,4.75 -1.70,3.51 -2.06,2.28 -2.24,1.50 -2.43,0.71 -2.48,0.41 -2.53,0.11 -2.50,-0.18 -2.48,-0.49 -2.39,-0.78 -2.29,-1.07 -2.13,-1.33 -1.97,-1.59 -1.75,-1.80 -1.53,-2.01 -1.27,-2.17 -1.00,-2.32 -0.71,-2.41 -0.42,-2.49 -0.11,-2.51 0.18,-2.52 0.48,-2.46 0.78,-2.40 1.06,-2.27 1.34,-2.14 1.58,-1.95 1.81,-1.76 2.00,-1.52 2.18,-1.27 2.30,-0.99 2.43,-0.71 2.43,-0.71 L 2.43,-0.71 Z"></path></g><g transform="translate(353.4390684340588 153.1371145235885) rotate(358.24570255290206 -3.69278353157668 8.518539489994623)" stroke="none"><path fill="#e03131" d="M 1.70,1.88 Q 1.70,1.88 1.09,2.49 0.48,3.10 -0.40,4.10 -1.28,5.11 -2.17,6.08 -3.05,7.06 -3.61,8.01 -4.18,8.97 -4.06,10.19 -3.93,11.40 -3.89,12.60 -3.85,13.80 -3.64,14.87 -3.44,15.95 -3.36,16.52 -3.29,17.08 -3.40,17.65 -3.51,18.21 -3.79,18.71 -4.08,19.21 -4.50,19.59 -4.93,19.97 -5.46,20.19 -5.99,20.42 -6.56,20.46 -7.13,20.51 -7.69,20.37 -8.24,20.23 -8.72,19.92 -9.21,19.61 -9.56,19.16 -9.92,18.71 -10.12,18.17 -10.31,17.63 -10.33,17.06 -10.34,16.49 -10.17,15.94 -10.00,15.39 -9.66,14.93 -9.33,14.46 -8.86,14.13 -8.39,13.80 -7.85,13.63 -7.30,13.46 -6.72,13.48 -6.15,13.50 -5.61,13.70 -5.08,13.90 -4.63,14.26 -4.18,14.62 -3.88,15.10 -3.57,15.59 -3.43,16.14 -3.30,16.70 -3.35,17.27 -3.39,17.84 -3.62,18.37 -3.85,18.90 -4.24,19.32 -4.62,19.75 -5.12,20.03 -5.62,20.31 -6.18,20.41 -6.75,20.52 -7.31,20.44 -7.88,20.36 -8.39,20.10 -8.91,19.85 -9.31,19.44 -9.72,19.03 -9.97,18.52 -10.22,18.01 -10.22,18.01 -10.22,18.01 -10.56,15.77 -10.90,13.53 -10.86,12.47 -10.83,11.40 -10.77,10.27 -10.71,9.14 -10.39,7.82 -10.08,6.50 -9.28,5.24 -8.49,3.98 -7.72,3.21 -6.96,2.44 -5.93,1.60 -4.91,0.76 -3.97,-0.02 -3.03,-0.80 -2.37,-1.34 -1.70,-1.88 -1.45,-2.06 -1.20,-2.24 -0.91,-2.35 -0.62,-2.46 -0.32,-2.50 -0.02,-2.54 0.28,-2.50 0.58,-2.47 0.87,-2.36 1.16,-2.26 1.41,-2.09 1.67,-1.91 1.87,-1.69 2.08,-1.46 2.22,-1.19 2.37,-0.92 2.44,-0.62 2.52,-0.32 2.52,-0.02 2.52,0.28 2.45,0.58 2.38,0.88 2.24,1.15 2.10,1.42 1.90,1.65 1.70,1.88 1.70,1.88 L 1.70,1.88 Z"></path></g><g transform="translate(349.29378036415136 174.1570363622789) rotate(358.24570255290206 6.2803455416431575 4.731077649459991)" stroke="none"><path fill="#1971c2" d="M 2.15,-1.10 Q 2.15,-1.10 2.43,-0.67 2.70,-0.23 3.45,0.71 4.21,1.66 5.14,2.29 6.08,2.92 7.06,3.39 8.05,3.87 9.21,4.43 10.36,4.99 11.46,5.50 12.55,6.01 13.10,6.11 13.65,6.21 14.14,6.48 14.62,6.76 15.00,7.17 15.37,7.58 15.60,8.09 15.82,8.60 15.87,9.16 15.92,9.71 15.79,10.25 15.66,10.79 15.36,11.27 15.06,11.74 14.63,12.09 14.20,12.44 13.68,12.64 13.16,12.83 12.60,12.85 12.04,12.87 11.51,12.71 10.97,12.55 10.52,12.23 10.06,11.91 9.74,11.46 9.41,11.01 9.24,10.48 9.07,9.94 9.09,9.39 9.10,8.83 9.29,8.31 9.47,7.78 9.82,7.34 10.17,6.91 10.63,6.60 11.10,6.30 11.64,6.16 12.18,6.02 12.74,6.07 13.29,6.11 13.81,6.32 14.32,6.54 14.74,6.91 15.15,7.28 15.43,7.76 15.71,8.25 15.82,8.79 15.93,9.34 15.86,9.89 15.78,10.44 15.54,10.95 15.30,11.45 14.90,11.84 14.51,12.24 14.01,12.49 13.52,12.74 12.97,12.82 12.41,12.90 12.41,12.90 12.41,12.90 9.55,11.77 6.68,10.64 5.76,10.06 4.84,9.48 3.52,8.66 2.20,7.84 1.38,6.90 0.57,5.96 -0.18,5.06 -0.95,4.16 -1.36,3.10 -1.78,2.05 -1.96,1.57 -2.15,1.10 -2.25,0.82 -2.35,0.55 -2.39,0.26 -2.42,-0.02 -2.38,-0.31 -2.34,-0.60 -2.24,-0.87 -2.13,-1.14 -1.96,-1.38 -1.79,-1.62 -1.57,-1.81 -1.35,-2.00 -1.09,-2.14 -0.83,-2.27 -0.55,-2.34 -0.26,-2.40 0.02,-2.40 0.31,-2.40 0.60,-2.32 0.88,-2.25 1.14,-2.11 1.39,-1.97 1.61,-1.78 1.83,-1.58 1.99,-1.34 2.15,-1.10 2.15,-1.10 L 2.15,-1.10 Z"></path></g><g transform="translate(377.27908252370037 156.12084652634715) rotate(358.24570255290206 2.148404730336523 6.521962290356868)" stroke="none"><path fill="#e03131" d="M 2.50,-0.38 Q 2.50,-0.38 2.68,0.48 2.86,1.35 3.30,2.34 3.73,3.34 4.11,4.42 4.48,5.51 5.01,6.58 5.53,7.64 6.48,9.90 7.43,12.16 7.47,12.68 7.52,13.20 7.40,13.72 7.27,14.23 6.99,14.68 6.71,15.12 6.31,15.46 5.90,15.79 5.41,15.97 4.91,16.16 4.39,16.18 3.86,16.20 3.35,16.05 2.85,15.90 2.42,15.59 1.99,15.29 1.68,14.86 1.37,14.44 1.21,13.93 1.05,13.43 1.06,12.91 1.07,12.38 1.25,11.88 1.43,11.39 1.75,10.97 2.08,10.56 2.52,10.27 2.96,9.99 3.47,9.85 3.98,9.72 4.51,9.76 5.03,9.80 5.52,10.00 6.01,10.21 6.40,10.56 6.80,10.91 7.06,11.36 7.32,11.82 7.42,12.34 7.53,12.85 7.46,13.38 7.39,13.90 7.16,14.37 6.93,14.85 6.56,15.22 6.19,15.60 5.72,15.83 5.25,16.07 4.73,16.15 4.21,16.22 3.69,16.13 3.17,16.03 2.71,15.78 2.25,15.52 1.90,15.13 1.54,14.74 1.33,14.26 1.12,13.78 1.12,13.78 1.12,13.78 0.19,11.54 -0.72,9.31 -0.95,8.16 -1.18,7.02 -1.44,5.88 -1.71,4.75 -2.01,3.45 -2.32,2.16 -2.41,1.27 -2.50,0.38 -2.51,0.08 -2.52,-0.22 -2.46,-0.52 -2.40,-0.82 -2.26,-1.09 -2.13,-1.37 -1.93,-1.60 -1.74,-1.84 -1.49,-2.02 -1.25,-2.20 -0.96,-2.32 -0.68,-2.44 -0.38,-2.49 -0.08,-2.53 0.22,-2.51 0.52,-2.48 0.81,-2.38 1.10,-2.28 1.36,-2.11 1.62,-1.95 1.83,-1.73 2.04,-1.50 2.19,-1.24 2.34,-0.97 2.42,-0.68 2.50,-0.38 2.50,-0.38 L 2.50,-0.38 Z"></path></g><g transform="translate(383.88781755945473 172.89898043384025) rotate(358.24570255290206 1.4398904250203657 3.740133314514253)" stroke="none"><path fill="#1971c2" d="M 2.43,-0.71 Q 2.43,-0.71 2.70,0.03 2.97,0.78 3.45,1.78 3.93,2.78 4.48,4.15 5.03,5.52 5.27,5.92 5.52,6.32 5.63,6.78 5.73,7.24 5.69,7.71 5.64,8.17 5.45,8.60 5.26,9.03 4.94,9.38 4.62,9.72 4.21,9.95 3.79,10.17 3.33,10.25 2.87,10.33 2.40,10.26 1.94,10.19 1.52,9.98 1.10,9.76 0.78,9.42 0.45,9.09 0.25,8.66 0.04,8.24 -0.00,7.77 -0.06,7.30 0.03,6.84 0.12,6.38 0.36,5.98 0.60,5.57 0.95,5.27 1.31,4.96 1.74,4.78 2.18,4.60 2.65,4.57 3.12,4.54 3.57,4.66 4.02,4.78 4.42,5.04 4.81,5.30 5.10,5.67 5.39,6.04 5.54,6.48 5.70,6.93 5.70,7.40 5.71,7.87 5.56,8.31 5.42,8.76 5.14,9.14 4.86,9.52 4.47,9.78 4.08,10.05 3.63,10.18 3.18,10.31 2.71,10.29 2.24,10.27 1.80,10.10 1.37,9.93 1.00,9.63 0.64,9.33 0.64,9.33 0.64,9.33 -0.35,7.04 -1.35,4.75 -1.70,3.51 -2.06,2.28 -2.24,1.50 -2.43,0.71 -2.48,0.41 -2.53,0.11 -2.50,-0.18 -2.48,-0.49 -2.39,-0.78 -2.29,-1.07 -2.13,-1.33 -1.97,-1.59 -1.75,-1.80 -1.53,-2.01 -1.27,-2.17 -1.00,-2.32 -0.71,-2.41 -0.42,-2.49 -0.11,-2.51 0.18,-2.52 0.48,-2.46 0.78,-2.40 1.06,-2.27 1.34,-2.14 1.58,-1.95 1.81,-1.76 2.00,-1.52 2.18,-1.27 2.30,-0.99 2.43,-0.71 2.43,-0.71 L 2.43,-0.71 Z"></path></g><g transform="translate(352.54965790539137 324.93349494801316) rotate(180 -1.6292576713948677 7.276178967531962)" stroke="none"><path fill="#1971c2" d="M 1.78,1.71 Q 1.78,1.71 1.41,2.16 1.04,2.62 0.66,3.82 0.27,5.01 0.22,6.12 0.16,7.23 0.12,8.53 0.08,9.82 0.33,11.18 0.58,12.54 0.81,13.04 1.05,13.54 1.12,14.09 1.18,14.64 1.07,15.19 0.95,15.73 0.67,16.21 0.39,16.68 -0.02,17.05 -0.43,17.41 -0.95,17.62 -1.46,17.83 -2.01,17.86 -2.57,17.90 -3.10,17.76 -3.64,17.61 -4.10,17.31 -4.56,17.00 -4.90,16.56 -5.24,16.13 -5.42,15.60 -5.60,15.08 -5.61,14.53 -5.61,13.97 -5.44,13.44 -5.27,12.92 -4.94,12.47 -4.61,12.03 -4.15,11.71 -3.70,11.40 -3.16,11.25 -2.63,11.09 -2.08,11.12 -1.52,11.14 -1.01,11.34 -0.49,11.54 -0.07,11.90 0.35,12.25 0.64,12.72 0.93,13.19 1.05,13.73 1.18,14.27 1.12,14.83 1.07,15.38 0.84,15.88 0.61,16.39 0.24,16.79 -0.13,17.20 -0.62,17.46 -1.10,17.73 -1.65,17.82 -2.20,17.92 -2.74,17.83 -3.29,17.75 -3.78,17.49 -4.27,17.24 -4.66,16.84 -5.04,16.44 -5.04,16.44 -5.04,16.44 -5.86,14.04 -6.67,11.64 -6.61,10.55 -6.56,9.46 -6.37,8.34 -6.19,7.22 -5.99,6.11 -5.79,5.01 -5.33,3.89 -4.87,2.77 -4.44,1.79 -4.01,0.81 -3.33,-0.05 -2.66,-0.93 -2.22,-1.32 -1.78,-1.71 -1.55,-1.89 -1.32,-2.08 -1.05,-2.21 -0.78,-2.34 -0.49,-2.40 -0.19,-2.46 0.09,-2.45 0.39,-2.43 0.68,-2.35 0.96,-2.27 1.22,-2.12 1.48,-1.97 1.69,-1.76 1.91,-1.56 2.07,-1.31 2.23,-1.05 2.32,-0.77 2.42,-0.49 2.44,-0.19 2.46,0.09 2.42,0.39 2.37,0.68 2.25,0.96 2.14,1.23 1.96,1.47 1.78,1.71 1.78,1.71 L 1.78,1.71 Z"></path></g><g transform="translate(337.49446759529354 315.7096722041081) rotate(180 6.257494355713703 2.762251355153296)" stroke="none"><path fill="#e03131" d="M 1.88,-1.64 Q 1.88,-1.64 2.32,-1.21 2.75,-0.79 3.69,-0.12 4.63,0.54 5.63,1.12 6.63,1.69 7.90,1.82 9.16,1.94 10.88,2.05 12.60,2.15 13.13,2.27 13.66,2.38 14.13,2.66 14.60,2.93 14.96,3.35 15.31,3.76 15.52,4.26 15.72,4.77 15.76,5.31 15.79,5.85 15.65,6.38 15.51,6.91 15.21,7.36 14.90,7.81 14.47,8.14 14.04,8.48 13.53,8.66 13.01,8.83 12.47,8.84 11.92,8.84 11.41,8.67 10.89,8.50 10.45,8.18 10.02,7.85 9.71,7.40 9.40,6.95 9.25,6.43 9.10,5.91 9.13,5.36 9.15,4.82 9.35,4.31 9.55,3.80 9.89,3.39 10.24,2.97 10.71,2.68 11.17,2.40 11.70,2.28 12.23,2.16 12.78,2.21 13.32,2.27 13.81,2.49 14.31,2.72 14.71,3.09 15.11,3.46 15.36,3.94 15.62,4.42 15.72,4.95 15.81,5.49 15.72,6.03 15.64,6.57 15.39,7.05 15.14,7.53 14.75,7.91 14.35,8.29 13.86,8.52 13.37,8.75 12.83,8.82 12.29,8.88 12.29,8.88 12.29,8.88 10.72,8.71 9.16,8.55 8.05,8.35 6.94,8.16 5.81,7.78 4.69,7.40 3.53,6.77 2.38,6.13 1.51,5.38 0.65,4.63 -0.25,3.62 -1.16,2.62 -1.52,2.13 -1.88,1.64 -2.05,1.39 -2.22,1.14 -2.33,0.86 -2.43,0.57 -2.46,0.27 -2.50,-0.02 -2.46,-0.32 -2.42,-0.62 -2.31,-0.90 -2.20,-1.18 -2.03,-1.42 -1.85,-1.67 -1.63,-1.87 -1.40,-2.07 -1.13,-2.21 -0.86,-2.34 -0.57,-2.41 -0.28,-2.48 0.02,-2.48 0.32,-2.48 0.61,-2.40 0.90,-2.33 1.17,-2.19 1.44,-2.04 1.66,-1.84 1.88,-1.64 1.88,-1.64 L 1.88,-1.64 Z"></path></g><g transform="translate(383.1792081899315 327.2777891048984) rotate(180 1.9476118909973081 5.673056675765224)" stroke="none"><path fill="#1971c2" d="M 2.59,-0.24 Q 2.59,-0.24 2.71,0.69 2.84,1.63 3.22,2.67 3.60,3.70 4.12,4.75 4.64,5.81 5.66,7.85 6.67,9.90 6.82,10.39 6.96,10.87 6.94,11.38 6.92,11.89 6.75,12.36 6.57,12.83 6.25,13.23 5.92,13.62 5.49,13.89 5.07,14.16 4.57,14.27 4.08,14.39 3.57,14.35 3.07,14.30 2.61,14.09 2.14,13.89 1.77,13.55 1.39,13.21 1.15,12.76 0.90,12.32 0.81,11.82 0.72,11.32 0.80,10.82 0.87,10.32 1.10,9.87 1.33,9.42 1.69,9.06 2.05,8.71 2.51,8.48 2.96,8.26 3.47,8.20 3.97,8.14 4.47,8.24 4.96,8.34 5.40,8.59 5.84,8.84 6.17,9.22 6.51,9.60 6.71,10.07 6.90,10.54 6.94,11.05 6.97,11.55 6.85,12.04 6.72,12.53 6.44,12.96 6.17,13.38 5.77,13.69 5.37,14.01 4.89,14.18 4.42,14.35 3.91,14.36 3.40,14.37 2.92,14.21 2.44,14.06 2.03,13.76 1.62,13.46 1.33,13.05 1.03,12.63 1.04,12.63 1.04,12.63 0.17,10.76 -0.69,8.90 -1.06,7.85 -1.43,6.79 -1.78,5.67 -2.12,4.54 -2.30,3.35 -2.48,2.15 -2.53,1.20 -2.59,0.24 -2.58,-0.06 -2.57,-0.37 -2.49,-0.68 -2.41,-0.98 -2.25,-1.25 -2.10,-1.53 -1.89,-1.76 -1.67,-1.99 -1.41,-2.16 -1.15,-2.33 -0.85,-2.43 -0.55,-2.54 -0.24,-2.57 0.06,-2.60 0.37,-2.55 0.68,-2.51 0.97,-2.39 1.26,-2.27 1.52,-2.09 1.77,-1.90 1.97,-1.66 2.18,-1.42 2.31,-1.14 2.45,-0.86 2.52,-0.55 2.59,-0.24 2.59,-0.24 L 2.59,-0.24 Z"></path></g><g transform="translate(378.4807917936626 317.133265508749) rotate(180 1.9884251719131498 3.6862470295550054)" stroke="none"><path fill="#e03131" d="M 2.43,-0.00 Q 2.43,-0.00 2.48,0.53 2.53,1.08 3.37,1.98 4.21,2.88 5.27,4.21 6.33,5.55 6.55,5.98 6.77,6.41 6.84,6.88 6.91,7.36 6.82,7.84 6.74,8.31 6.50,8.73 6.27,9.15 5.91,9.48 5.56,9.81 5.11,10.00 4.67,10.19 4.19,10.24 3.71,10.28 3.24,10.17 2.77,10.06 2.37,9.80 1.96,9.54 1.65,9.17 1.35,8.80 1.18,8.35 1.00,7.89 0.99,7.41 0.97,6.93 1.11,6.47 1.25,6.01 1.52,5.61 1.80,5.22 2.19,4.93 2.58,4.65 3.04,4.50 3.50,4.36 3.98,4.37 4.46,4.37 4.92,4.54 5.37,4.70 5.75,5.00 6.13,5.30 6.39,5.70 6.66,6.11 6.78,6.57 6.90,7.04 6.86,7.52 6.83,8.00 6.64,8.45 6.45,8.89 6.13,9.25 5.82,9.62 5.40,9.86 4.98,10.10 4.51,10.19 4.03,10.29 3.56,10.23 3.08,10.16 2.64,9.95 2.21,9.74 1.87,9.41 1.52,9.07 1.52,9.07 1.52,9.07 0.29,7.31 -0.94,5.55 -1.47,4.60 -2.00,3.65 -2.26,2.37 -2.53,1.09 -2.48,0.54 -2.43,0.00 -2.40,-0.28 -2.36,-0.57 -2.26,-0.85 -2.16,-1.12 -1.99,-1.37 -1.82,-1.61 -1.60,-1.80 -1.38,-2.00 -1.12,-2.14 -0.86,-2.27 -0.58,-2.35 -0.29,-2.42 -0.00,-2.42 0.28,-2.42 0.57,-2.35 0.86,-2.28 1.12,-2.14 1.38,-2.00 1.60,-1.81 1.82,-1.62 1.99,-1.37 2.15,-1.13 2.26,-0.86 2.36,-0.58 2.40,-0.29 2.43,-0.00 2.43,-0.00 L 2.43,-0.00 Z"></path></g><g transform="translate(352.01742821036595 236.49439146552308) rotate(0 -1.6292576713948677 7.276178967531962)" stroke="none"><path fill="#1971c2" d="M 1.78,1.71 Q 1.78,1.71 1.41,2.16 1.04,2.62 0.66,3.82 0.27,5.01 0.22,6.12 0.16,7.23 0.12,8.53 0.08,9.82 0.33,11.18 0.58,12.54 0.81,13.04 1.05,13.54 1.12,14.09 1.18,14.64 1.07,15.19 0.95,15.73 0.67,16.21 0.39,16.68 -0.02,17.05 -0.43,17.41 -0.95,17.62 -1.46,17.83 -2.01,17.86 -2.57,17.90 -3.10,17.76 -3.64,17.61 -4.10,17.31 -4.56,17.00 -4.90,16.56 -5.24,16.13 -5.42,15.60 -5.60,15.08 -5.61,14.53 -5.61,13.97 -5.44,13.44 -5.27,12.92 -4.94,12.47 -4.61,12.03 -4.15,11.71 -3.70,11.40 -3.16,11.25 -2.63,11.09 -2.08,11.12 -1.52,11.14 -1.01,11.34 -0.49,11.54 -0.07,11.90 0.35,12.25 0.64,12.72 0.93,13.19 1.05,13.73 1.18,14.27 1.12,14.83 1.07,15.38 0.84,15.88 0.61,16.39 0.24,16.79 -0.13,17.20 -0.62,17.46 -1.10,17.73 -1.65,17.82 -2.20,17.92 -2.74,17.83 -3.29,17.75 -3.78,17.49 -4.27,17.24 -4.66,16.84 -5.04,16.44 -5.04,16.44 -5.04,16.44 -5.86,14.04 -6.67,11.64 -6.61,10.55 -6.56,9.46 -6.37,8.34 -6.19,7.22 -5.99,6.11 -5.79,5.01 -5.33,3.89 -4.87,2.77 -4.44,1.79 -4.01,0.81 -3.33,-0.05 -2.66,-0.93 -2.22,-1.32 -1.78,-1.71 -1.55,-1.89 -1.32,-2.08 -1.05,-2.21 -0.78,-2.34 -0.49,-2.40 -0.19,-2.46 0.09,-2.45 0.39,-2.43 0.68,-2.35 0.96,-2.27 1.22,-2.12 1.48,-1.97 1.69,-1.76 1.91,-1.56 2.07,-1.31 2.23,-1.05 2.32,-0.77 2.42,-0.49 2.44,-0.19 2.46,0.09 2.42,0.39 2.37,0.68 2.25,0.96 2.14,1.23 1.96,1.47 1.78,1.71 1.78,1.71 L 1.78,1.71 Z"></path></g><g transform="translate(351.29911446624664 254.7460694341854) rotate(0 6.257494355713703 2.762251355153296)" stroke="none"><path fill="#e03131" d="M 1.88,-1.64 Q 1.88,-1.64 2.32,-1.21 2.75,-0.79 3.69,-0.12 4.63,0.54 5.63,1.12 6.63,1.69 7.90,1.82 9.16,1.94 10.88,2.05 12.60,2.15 13.13,2.27 13.66,2.38 14.13,2.66 14.60,2.93 14.96,3.35 15.31,3.76 15.52,4.26 15.72,4.77 15.76,5.31 15.79,5.85 15.65,6.38 15.51,6.91 15.21,7.36 14.90,7.81 14.47,8.14 14.04,8.48 13.53,8.66 13.01,8.83 12.47,8.84 11.92,8.84 11.41,8.67 10.89,8.50 10.45,8.18 10.02,7.85 9.71,7.40 9.40,6.95 9.25,6.43 9.10,5.91 9.13,5.36 9.15,4.82 9.35,4.31 9.55,3.80 9.89,3.39 10.24,2.97 10.71,2.68 11.17,2.40 11.70,2.28 12.23,2.16 12.78,2.21 13.32,2.27 13.81,2.49 14.31,2.72 14.71,3.09 15.11,3.46 15.36,3.94 15.62,4.42 15.72,4.95 15.81,5.49 15.72,6.03 15.64,6.57 15.39,7.05 15.14,7.53 14.75,7.91 14.35,8.29 13.86,8.52 13.37,8.75 12.83,8.82 12.29,8.88 12.29,8.88 12.29,8.88 10.72,8.71 9.16,8.55 8.05,8.35 6.94,8.16 5.81,7.78 4.69,7.40 3.53,6.77 2.38,6.13 1.51,5.38 0.65,4.63 -0.25,3.62 -1.16,2.62 -1.52,2.13 -1.88,1.64 -2.05,1.39 -2.22,1.14 -2.33,0.86 -2.43,0.57 -2.46,0.27 -2.50,-0.02 -2.46,-0.32 -2.42,-0.62 -2.31,-0.90 -2.20,-1.18 -2.03,-1.42 -1.85,-1.67 -1.63,-1.87 -1.40,-2.07 -1.13,-2.21 -0.86,-2.34 -0.57,-2.41 -0.28,-2.48 0.02,-2.48 0.32,-2.48 0.61,-2.40 0.90,-2.33 1.17,-2.19 1.44,-2.04 1.66,-1.84 1.88,-1.64 1.88,-1.64 L 1.88,-1.64 Z"></path></g><g transform="translate(380.5834605662115 234.76881176748074) rotate(0 1.9476118909973081 5.673056675765224)" stroke="none"><path fill="#1971c2" d="M 2.59,-0.24 Q 2.59,-0.24 2.71,0.69 2.84,1.63 3.22,2.67 3.60,3.70 4.12,4.75 4.64,5.81 5.66,7.85 6.67,9.90 6.82,10.39 6.96,10.87 6.94,11.38 6.92,11.89 6.75,12.36 6.57,12.83 6.25,13.23 5.92,13.62 5.49,13.89 5.07,14.16 4.57,14.27 4.08,14.39 3.57,14.35 3.07,14.30 2.61,14.09 2.14,13.89 1.77,13.55 1.39,13.21 1.15,12.76 0.90,12.32 0.81,11.82 0.72,11.32 0.80,10.82 0.87,10.32 1.10,9.87 1.33,9.42 1.69,9.06 2.05,8.71 2.51,8.48 2.96,8.26 3.47,8.20 3.97,8.14 4.47,8.24 4.96,8.34 5.40,8.59 5.84,8.84 6.17,9.22 6.51,9.60 6.71,10.07 6.90,10.54 6.94,11.05 6.97,11.55 6.85,12.04 6.72,12.53 6.44,12.96 6.17,13.38 5.77,13.69 5.37,14.01 4.89,14.18 4.42,14.35 3.91,14.36 3.40,14.37 2.92,14.21 2.44,14.06 2.03,13.76 1.62,13.46 1.33,13.05 1.03,12.63 1.04,12.63 1.04,12.63 0.17,10.76 -0.69,8.90 -1.06,7.85 -1.43,6.79 -1.78,5.67 -2.12,4.54 -2.30,3.35 -2.48,2.15 -2.53,1.20 -2.59,0.24 -2.58,-0.06 -2.57,-0.37 -2.49,-0.68 -2.41,-0.98 -2.25,-1.25 -2.10,-1.53 -1.89,-1.76 -1.67,-1.99 -1.41,-2.16 -1.15,-2.33 -0.85,-2.43 -0.55,-2.54 -0.24,-2.57 0.06,-2.60 0.37,-2.55 0.68,-2.51 0.97,-2.39 1.26,-2.27 1.52,-2.09 1.77,-1.90 1.97,-1.66 2.18,-1.42 2.31,-1.14 2.45,-0.86 2.52,-0.55 2.59,-0.24 2.59,-0.24 L 2.59,-0.24 Z"></path></g><g transform="translate(385.2002504006485 248.88695465605062) rotate(0 1.9884251719131498 3.6862470295550054)" stroke="none"><path fill="#e03131" d="M 2.43,-0.00 Q 2.43,-0.00 2.48,0.53 2.53,1.08 3.37,1.98 4.21,2.88 5.27,4.21 6.33,5.55 6.55,5.98 6.77,6.41 6.84,6.88 6.91,7.36 6.82,7.84 6.74,8.31 6.50,8.73 6.27,9.15 5.91,9.48 5.56,9.81 5.11,10.00 4.67,10.19 4.19,10.24 3.71,10.28 3.24,10.17 2.77,10.06 2.37,9.80 1.96,9.54 1.65,9.17 1.35,8.80 1.18,8.35 1.00,7.89 0.99,7.41 0.97,6.93 1.11,6.47 1.25,6.01 1.52,5.61 1.80,5.22 2.19,4.93 2.58,4.65 3.04,4.50 3.50,4.36 3.98,4.37 4.46,4.37 4.92,4.54 5.37,4.70 5.75,5.00 6.13,5.30 6.39,5.70 6.66,6.11 6.78,6.57 6.90,7.04 6.86,7.52 6.83,8.00 6.64,8.45 6.45,8.89 6.13,9.25 5.82,9.62 5.40,9.86 4.98,10.10 4.51,10.19 4.03,10.29 3.56,10.23 3.08,10.16 2.64,9.95 2.21,9.74 1.87,9.41 1.52,9.07 1.52,9.07 1.52,9.07 0.29,7.31 -0.94,5.55 -1.47,4.60 -2.00,3.65 -2.26,2.37 -2.53,1.09 -2.48,0.54 -2.43,0.00 -2.40,-0.28 -2.36,-0.57 -2.26,-0.85 -2.16,-1.12 -1.99,-1.37 -1.82,-1.61 -1.60,-1.80 -1.38,-2.00 -1.12,-2.14 -0.86,-2.27 -0.58,-2.35 -0.29,-2.42 -0.00,-2.42 0.28,-2.42 0.57,-2.35 0.86,-2.28 1.12,-2.14 1.38,-2.00 1.60,-1.81 1.82,-1.62 1.99,-1.37 2.15,-1.13 2.26,-0.86 2.36,-0.58 2.40,-0.29 2.43,-0.00 2.43,-0.00 L 2.43,-0.00 Z"></path></g></svg>